<?xml version="1.0" encoding="iso-8859-1"?>
<!-- Generator: Adobe Illustrator 18.1.1, SVG Export Plug-In . SVG Version: 6.00 Build 0)  -->
<svg version="1.1" id="Capa_1" xmlns="http://www.w3.org/2000/svg" xmlns:xlink="http://www.w3.org/1999/xlink" x="0px" y="0px"
	 viewBox="0 0 108.133 108.133" style="enable-background:new 0 0 108.133 108.133;" xml:space="preserve">
<g>
	<g>
		<g>
			<ellipse style="fill:#010002;" cx="97.459" cy="32.497" rx="1.253" ry="0.63"/>
		</g>
		<g>
			<path style="fill:#010002;" d="M92.413,68.2c-1.7,0.977-2.945,1.993-3.876,3.021c-0.422-0.222-0.898-0.361-1.417-0.376
				c0.165-1.342,0.691-2.913,1.961-4.971c-1.381,0-2.759,0-4.137,0c-0.286,2.444-0.097,4.144,0.315,5.472
				c-0.426,0.268-0.784,0.63-1.049,1.056c-1.081-0.787-2.172-1.893-3.303-3.454c-0.569,1.267-1.131,2.119-2.083,2.845
				c1.958,1.464,3.529,2.162,4.899,2.473c0.021,0.519,0.157,0.991,0.383,1.417c-1.253,0.533-2.888,0.859-5.286,0.795
				c1.142,1.457,2.169,2.527,2.788,3.593c1.7-0.973,2.945-1.997,3.869-3.024c0.426,0.222,0.902,0.365,1.421,0.379
				c-0.161,1.342-0.691,2.917-1.958,4.975c1.378,0,2.759,0,4.137,0c0.283-2.448,0.093-4.144-0.319-5.468
				c0.426-0.272,0.787-0.633,1.049-1.059c1.084,0.791,2.172,1.9,3.307,3.457c0.565-1.263,1.127-2.115,2.083-2.849
				c-1.961-1.46-3.532-2.162-4.899-2.473c-0.021-0.515-0.157-0.991-0.39-1.417c1.256-0.53,2.892-0.855,5.293-0.791
				C94.056,70.34,93.029,69.27,92.413,68.2z M87.013,75.168c-0.569,0-1.031-0.462-1.031-1.034s0.462-1.034,1.031-1.034
				c0.573,0,1.034,0.462,1.034,1.034C88.043,74.71,87.582,75.168,87.013,75.168z"/>
		</g>
		<g>
			<path style="fill:#010002;" d="M106.041,51.565l2.072-23.853c0.122-1.374-0.909-2.502-2.29-2.502h-0.58l0.251-3.772
				c0.183-2.756-1.925-5.007-4.688-5.007H73.213c-2.759,0-4.86,2.255-4.685,5.007l0.247,3.772h-0.587
				c-1.378,0-2.409,1.124-2.294,2.502l0.229,2.623h7.083v-3.006h27.6v7.53H75.152v49.159h-6.449l-0.179,2.677
				c-0.183,2.756,1.925,5.003,4.685,5.003h27.6c2.759,0,4.867-2.251,4.688-5.003l-0.251-3.776h0.587c1.378,0,2.409-1.124,2.29-2.502
				l-2.072-23.849C105.927,55.187,105.927,52.943,106.041,51.565z M93.773,22.551c-0.787,0-1.428-0.637-1.428-1.428
				c0-0.787,0.644-1.428,1.428-1.428c0.791,0,1.428,0.641,1.428,1.428C95.201,21.918,94.557,22.551,93.773,22.551z M98.715,23.002
				c-1.038,0-1.875-0.841-1.875-1.882c0-1.041,0.837-1.882,1.875-1.882c1.038,0,1.882,0.841,1.882,1.882
				C100.598,22.161,99.753,23.002,98.715,23.002z M90.151,41.126c0-0.347,0.279-0.626,0.626-0.626c0.347,0,0.626,0.283,0.626,0.626
				v20.077c0,0.344-0.279,0.623-0.626,0.623c-0.347,0-0.626-0.279-0.626-0.623V41.126z M82.621,41.126
				c0-0.347,0.279-0.626,0.623-0.626c0.351,0,0.63,0.283,0.63,0.626v20.077c0,0.344-0.279,0.623-0.63,0.623
				c-0.344,0-0.623-0.279-0.623-0.623V41.126z M87.013,84.172c-5.54,0-10.039-4.488-10.039-10.035
				c0-5.544,4.499-10.035,10.039-10.035c5.544,0,10.039,4.491,10.039,10.035C97.048,79.684,92.553,84.172,87.013,84.172z"/>
		</g>
		<g>
			<rect x="0" y="33.918" style="fill:#010002;" width="71.577" height="46.525"/>
		</g>
		<g>
			<polygon style="fill:#010002;" points="25.052,84.544 17.894,91.702 53.683,91.702 46.525,84.544 			"/>
		</g>
	</g>
</g>
<g>
</g>
<g>
</g>
<g>
</g>
<g>
</g>
<g>
</g>
<g>
</g>
<g>
</g>
<g>
</g>
<g>
</g>
<g>
</g>
<g>
</g>
<g>
</g>
<g>
</g>
<g>
</g>
<g>
</g>
</svg>
