<?xml version="1.0" encoding="utf-8"?>
<!-- Generator: Adobe Illustrator 21.0.0, SVG Export Plug-In . SVG Version: 6.00 Build 0)  -->
<svg version="1.1" id="Capa_1" xmlns="http://www.w3.org/2000/svg" xmlns:xlink="http://www.w3.org/1999/xlink" x="0px" y="0px"
	 viewBox="0 0 89.5 89.5" style="enable-background:new 0 0 89.5 89.5;" xml:space="preserve">
<style type="text/css">
	.st0{fill:#010002;}
</style>
<path class="st0" d="M51.2,61.5c-2,1.2-3.5,2.4-4.6,3.6c-0.5-0.3-1.1-0.4-1.7-0.4c0.2-1.6,0.8-3.5,2.3-5.9c-1.6,0-3.3,0-4.9,0
	c-0.3,2.9-0.1,4.9,0.4,6.5c-0.5,0.3-0.9,0.7-1.2,1.3c-1.3-0.9-2.6-2.3-3.9-4.1c-0.7,1.5-1.3,2.5-2.5,3.4c2.3,1.7,4.2,2.6,5.8,2.9
	c0,0.6,0.2,1.2,0.5,1.7c-1.5,0.6-3.4,1-6.3,0.9c1.4,1.7,2.6,3,3.3,4.3c2-1.2,3.5-2.4,4.6-3.6c0.5,0.3,1.1,0.4,1.7,0.5
	c-0.2,1.6-0.8,3.5-2.3,5.9c1.6,0,3.3,0,4.9,0c0.3-2.9,0.1-4.9-0.4-6.5c0.5-0.3,0.9-0.7,1.2-1.3c1.3,0.9,2.6,2.3,3.9,4.1
	c0.7-1.5,1.3-2.5,2.5-3.4c-2.3-1.7-4.2-2.6-5.8-2.9c0-0.6-0.2-1.2-0.5-1.7c1.5-0.6,3.4-1,6.3-0.9C53.1,64.1,51.9,62.8,51.2,61.5z
	 M44.7,69.8c-0.7,0-1.2-0.5-1.2-1.2c0-0.7,0.6-1.2,1.2-1.2c0.7,0,1.2,0.6,1.2,1.2C46,69.3,45.4,69.8,44.7,69.8z"/>
<path class="st0" d="M67.4,41.8l2.5-28.4c0.1-1.6-1.1-3-2.7-3h-0.7L66.7,6c0.2-3.3-2.3-6-5.6-6H28.3c-3.3,0-5.8,2.7-5.6,6l0.3,4.5
	h-0.7c-1.6,0-2.9,1.3-2.7,3l2.5,28.4c0.1,1.6,0.1,4.3,0,5.9l-2.5,28.4c-0.1,1.6,1.1,3,2.7,3h0.7l-0.3,4.5c-0.2,3.3,2.3,6,5.6,6h32.8
	c3.3,0,5.8-2.7,5.6-6L66.4,79h0.7c1.6,0,2.9-1.3,2.7-3l-2.5-28.4C67.2,46.1,67.2,43.4,67.4,41.8z M58.6,3.3c1.2,0,2.2,1,2.2,2.2
	s-1,2.2-2.2,2.2s-2.2-1-2.2-2.2S57.4,3.3,58.6,3.3z M52.8,3.9c0.9,0,1.7,0.8,1.7,1.7s-0.8,1.7-1.7,1.7c-0.9,0-1.7-0.8-1.7-1.7
	S51.8,3.9,52.8,3.9z M44.7,80.5c-6.6,0-11.9-5.3-11.9-11.9s5.3-11.9,11.9-11.9S56.7,62,56.7,68.6S51.3,80.5,44.7,80.5z M39.5,53.2
	V29.4c0-0.4,0.3-0.7,0.7-0.7c0.4,0,0.7,0.3,0.7,0.7v23.9c0,0.4-0.3,0.7-0.7,0.7C39.9,54,39.5,53.6,39.5,53.2z M48.5,53.2V29.4
	c0-0.4,0.3-0.7,0.7-0.7c0.4,0,0.7,0.3,0.7,0.7v23.9c0,0.4-0.3,0.7-0.7,0.7C48.8,54,48.5,53.6,48.5,53.2z M61.1,21.9H28.3V13h32.8
	V21.9z"/>
</svg>
