<?xml version="1.0" encoding="utf-8"?>
<!-- Generator: Adobe Illustrator 21.0.0, SVG Export Plug-In . SVG Version: 6.00 Build 0)  -->
<svg version="1.1" id="Capa_1" xmlns="http://www.w3.org/2000/svg" xmlns:xlink="http://www.w3.org/1999/xlink" x="0px" y="0px"
	 viewBox="0 0 89.5 89.5" style="enable-background:new 0 0 89.5 89.5;" xml:space="preserve">
<style type="text/css">
	.st0{fill:#010002;}
</style>
<path class="st0" d="M68,0H21.5c-2,0-3.6,1.6-3.6,3.6v82.3c0,2,1.6,3.6,3.6,3.6H68c2,0,3.6-1.6,3.6-3.6V3.6C71.6,1.6,70,0,68,0z
	 M44.7,65.8c-3,0-5.4-2.4-5.4-5.4c0-3,2.4-5.4,5.4-5.4s5.4,2.4,5.4,5.4C50.1,63.4,47.7,65.8,44.7,65.8z M64.4,39.7H25.1v-1.8h39.4
	V39.7z M64.4,29H25.1v-1.8h39.4V29z M64.4,17.3H25.1V6.6h39.4V17.3z"/>
</svg>
