<?xml version="1.0" encoding="utf-8"?>
<!-- Generator: Adobe Illustrator 21.0.0, SVG Export Plug-In . SVG Version: 6.00 Build 0)  -->
<svg version="1.1" id="Capa_1" xmlns="http://www.w3.org/2000/svg" xmlns:xlink="http://www.w3.org/1999/xlink" x="0px" y="0px"
	 viewBox="0 0 109.6 109.6" style="enable-background:new 0 0 109.6 109.6;" xml:space="preserve">
<style type="text/css">
	.st0{fill:#010002;}
</style>
<path class="st0" d="M106.6,17.2H67.4c-1.7,0-3,1.4-3,3v10.9h6v-8.4h33.1v9H75.2V40h28.4v1.5H75.2v7.5h28.4v1.5H75.2v34.2H64.4v4.7
	c0,1.7,1.4,3,3,3h39.1c1.7,0,3-1.4,3-3V20.2C109.6,18.5,108.2,17.2,106.6,17.2z M87,72.5c-2.5,0-4.5-2-4.5-4.5c0-2.5,2-4.5,4.5-4.5
	c2.5,0,4.5,2,4.5,4.5S89.5,72.5,87,72.5z"/>
<g>
	<path class="st0" d="M24,84.9l-7.8,7.8h39.2l-7.8-7.8H24z M23.8,90l4.8-2.6H43l4.8,2.6H23.8z"/>
	<path class="st0" d="M0.4,34.3v46.5H72V34.3H0.4z M66.6,76.9H5.7V38.2h60.9V76.9z"/>
</g>
</svg>
