<?xml version="1.0" encoding="iso-8859-1"?>
<!-- Generator: Adobe Illustrator 18.1.1, SVG Export Plug-In . SVG Version: 6.00 Build 0)  -->
<svg version="1.1" id="Capa_1" xmlns="http://www.w3.org/2000/svg" xmlns:xlink="http://www.w3.org/1999/xlink" x="0px" y="0px"
	 viewBox="0 0 85.348 85.348" style="enable-background:new 0 0 85.348 85.348;" xml:space="preserve">
<g>
	<g>
		<path style="fill:#010002;" d="M77.45,58.106V39.138v-0.082c4.695-2.706,7.899-7.72,7.899-13.535
			c0-8.647-7.018-15.665-15.672-15.665c-5.508,0-10.336,2.86-13.131,7.158h-45.48c-1.739,0-3.167,1.417-3.167,3.16v18.968V58.11
			v3.16L0,70.754c0,2.613,2.122,4.738,4.738,4.738H80.61c2.613,0,4.735-2.126,4.735-4.738l-7.899-9.484L77.45,58.106L77.45,58.106z
			 M55.304,22.382h28.735l0.007,6.288l-28.742-0.004C55.304,28.667,55.304,22.382,55.304,22.382z M49.002,73.914H36.354
			c-0.437,0-0.791-0.358-0.791-0.798c0-0.433,0.354-0.784,0.791-0.784h12.648c0.433,0,0.791,0.351,0.791,0.784
			C49.782,73.563,49.435,73.914,49.002,73.914z M29.644,70.754l2.412-2.895h21.237l2.412,2.895H29.644z M72.998,55.676
			c0,1.521-1.242,2.759-2.756,2.759H15.106c-1.514,0-2.756-1.242-2.756-2.759V22.604c0-1.521,1.242-2.759,2.756-2.759h40.004
			c-0.687,1.764-1.106,3.668-1.106,5.68c0,8.661,7.022,15.675,15.672,15.675c1.138,0,2.248-0.136,3.321-0.369L72.998,55.676
			L72.998,55.676z"/>
	</g>
</g>
<g>
</g>
<g>
</g>
<g>
</g>
<g>
</g>
<g>
</g>
<g>
</g>
<g>
</g>
<g>
</g>
<g>
</g>
<g>
</g>
<g>
</g>
<g>
</g>
<g>
</g>
<g>
</g>
<g>
</g>
</svg>
