<?xml version="1.0" encoding="iso-8859-1"?>
<!-- Generator: Adobe Illustrator 18.1.1, SVG Export Plug-In . SVG Version: 6.00 Build 0)  -->
<svg version="1.1" id="Capa_1" xmlns="http://www.w3.org/2000/svg" xmlns:xlink="http://www.w3.org/1999/xlink" x="0px" y="0px"
	 viewBox="0 0 85.348 85.348" style="enable-background:new 0 0 85.348 85.348;" xml:space="preserve">
<g>
	<g>
		<path style="fill:#010002;" d="M77.45,57.691v-3.16V35.563V16.595c0-1.736-1.424-3.16-3.164-3.16h-63.22
			c-1.739,0-3.167,1.417-3.167,3.16v18.968v18.968v3.16L0,67.175c0,2.613,2.122,4.738,4.738,4.738H80.61
			c2.616,0,4.738-2.126,4.738-4.738L77.45,57.691z M49.002,70.339H36.358c-0.44,0-0.791-0.351-0.791-0.791s0.351-0.791,0.791-0.791
			h12.644c0.433,0,0.791,0.351,0.791,0.791C49.782,69.988,49.435,70.339,49.002,70.339z M29.644,67.179l2.412-2.895h21.237
			l2.412,2.895H29.644z M72.998,52.101c0,1.525-1.242,2.759-2.756,2.759H15.106c-1.514,0-2.756-1.245-2.756-2.759V19.032
			c0-1.525,1.242-2.759,2.756-2.759h55.136c1.514,0,2.756,1.242,2.756,2.759C72.998,19.032,72.998,52.101,72.998,52.101z"/>
		<path style="fill:#010002;" d="M59.355,41.597c-0.004,0-0.007,0-0.011,0v-4.262c0-0.075,0.011-0.147,0.011-0.222
			c0-0.075-0.011-0.14-0.011-0.215v-0.687h-0.036c-0.476-8.793-7.723-15.779-16.634-15.779S26.505,27.418,26.04,36.211h-0.036v0.687
			c0,0.075-0.011,0.14-0.011,0.215c0,0.075,0.011,0.154,0.011,0.222v4.262c-0.004,0-0.007,0-0.011,0
			c-1.231,0-2.222,1.306-2.222,2.913c0,1.614,0.991,2.92,2.222,2.92c0.161,0,0.326-0.029,0.48-0.072
			c0.616,1.761,1.768,2.97,3.103,2.97c1.979,0,2.326-2.609,2.326-5.823c0-3.21-0.351-5.816-2.326-5.816
			c-0.852,0-1.621,0.508-2.24,1.31v-3.489c1.746-6.85,7.945-11.932,15.339-11.932c7.408,0,13.618,5.096,15.35,11.971v3.461
			c-0.616-0.816-1.399-1.321-2.251-1.321c-1.979,0-2.326,2.605-2.326,5.816c0,3.214,0.351,5.823,2.326,5.823
			c1.335,0,2.487-1.21,3.103-2.97c0.154,0.043,0.315,0.072,0.48,0.072c1.231,0,2.222-1.306,2.222-2.913
			C61.578,42.903,60.586,41.597,59.355,41.597z"/>
	</g>
</g>
<g>
</g>
<g>
</g>
<g>
</g>
<g>
</g>
<g>
</g>
<g>
</g>
<g>
</g>
<g>
</g>
<g>
</g>
<g>
</g>
<g>
</g>
<g>
</g>
<g>
</g>
<g>
</g>
<g>
</g>
</svg>
