<?xml version="1.0" encoding="iso-8859-1"?>
<!-- Generator: Adobe Illustrator 18.1.1, SVG Export Plug-In . SVG Version: 6.00 Build 0)  -->
<svg version="1.1" id="Capa_1" xmlns="http://www.w3.org/2000/svg" xmlns:xlink="http://www.w3.org/1999/xlink" x="0px" y="0px"
	 viewBox="0 0 46.428 46.428" style="enable-background:new 0 0 46.428 46.428;" xml:space="preserve">
<g>
	<g>
		<path style="fill:#010002;" d="M42.119,31.378v-1.714V19.345V9.028c0-0.945-0.777-1.718-1.714-1.718H6.012
			c-0.948,0-1.721,0.773-1.721,1.718v10.318v10.318v1.714L0,36.538c0,1.421,1.152,2.58,2.58,2.58h41.268
			c1.417,0,2.58-1.156,2.58-2.58L42.119,31.378z M26.645,38.256H19.77c-0.236,0-0.433-0.193-0.433-0.433
			c0-0.233,0.197-0.426,0.433-0.426h6.875c0.236,0,0.426,0.19,0.426,0.426C27.078,38.063,26.881,38.256,26.645,38.256z
			 M16.119,36.542l1.31-1.575h11.549l1.313,1.575H16.119z M39.7,28.339c0,0.823-0.676,1.503-1.503,1.503H8.21
			c-0.82,0-1.5-0.673-1.5-1.503V10.352c0-0.827,0.673-1.503,1.5-1.503h29.987c0.823,0,1.503,0.673,1.503,1.503V28.339z"/>
	</g>
	<g>
		<path style="fill:#010002;" d="M42.123,31.378v-1.714V19.345V9.028c0-0.948-0.777-1.718-1.714-1.718H6.023
			c-0.952,0-1.721,0.773-1.721,1.718v10.318v10.318v1.714l-4.295,5.161c0,1.421,1.152,2.58,2.58,2.58h41.264
			c1.421,0,2.577-1.152,2.577-2.58L42.123,31.378z M26.652,38.263h-6.879c-0.236,0-0.429-0.197-0.429-0.433
			c0-0.236,0.193-0.429,0.429-0.429h6.879c0.233,0,0.429,0.19,0.429,0.429C27.081,38.066,26.891,38.263,26.652,38.263z
			 M16.13,36.542l1.306-1.575h11.556l1.313,1.575H16.13z M39.704,28.339c0,0.827-0.673,1.503-1.496,1.503H8.217
			c-0.823,0-1.5-0.673-1.5-1.503V10.352c0-0.823,0.673-1.503,1.5-1.503h29.994c0.82,0,1.496,0.673,1.496,1.503v17.987H39.704z"/>
	</g>
	<g>
		<g>
			<path style="fill:#010002;" d="M8.339,13.838c-0.616,0-1.113-0.497-1.113-1.113V11.83c0-0.612,0.497-1.113,1.113-1.113
				s1.113,0.497,1.113,1.113v0.895C9.448,13.34,8.954,13.838,8.339,13.838z"/>
		</g>
		<g>
			<path style="fill:#010002;" d="M8.339,31.002c-0.616,0-1.113-0.501-1.113-1.117v-1.908c0-0.612,0.497-1.113,1.113-1.113
				s1.113,0.497,1.113,1.113v1.908C9.448,30.501,8.954,31.002,8.339,31.002z M8.339,25.279c-0.616,0-1.113-0.497-1.113-1.113v-1.908
				c0-0.612,0.497-1.113,1.113-1.113s1.113,0.497,1.113,1.113v1.908C9.448,24.782,8.954,25.279,8.339,25.279z M8.339,19.56
				c-0.616,0-1.113-0.497-1.113-1.117V16.54c0-0.616,0.497-1.117,1.113-1.117s1.113,0.497,1.113,1.117v1.904
				C9.448,19.063,8.954,19.56,8.339,19.56z"/>
		</g>
		<g>
			<path style="fill:#010002;" d="M9.233,35.708H7.226V33.7c0-0.612,0.497-1.117,1.113-1.117c0.544,0,0.998,0.394,1.099,0.913
				c0.519,0.093,0.909,0.548,0.909,1.099C10.343,35.211,9.849,35.708,9.233,35.708z"/>
		</g>
		<g>
			<path style="fill:#010002;" d="M33.906,35.708h-1.65c-0.616,0-1.113-0.497-1.113-1.113s0.497-1.117,1.113-1.117h1.65
				c0.616,0,1.113,0.501,1.113,1.117S34.514,35.708,33.906,35.708z M28.971,35.708h-1.65c-0.616,0-1.113-0.497-1.113-1.113
				s0.497-1.117,1.113-1.117h1.65c0.616,0,1.113,0.501,1.113,1.117S29.586,35.708,28.971,35.708z M24.036,35.708h-1.646
				c-0.616,0-1.113-0.497-1.113-1.113s0.497-1.117,1.113-1.117h1.646c0.616,0,1.113,0.501,1.113,1.117S24.651,35.708,24.036,35.708z
				 M19.1,35.708h-1.643c-0.616,0-1.117-0.497-1.117-1.113s0.501-1.117,1.117-1.117H19.1c0.619,0,1.117,0.501,1.117,1.117
				S19.716,35.708,19.1,35.708z M14.169,35.708h-1.646c-0.616,0-1.117-0.497-1.117-1.113s0.501-1.117,1.117-1.117h1.646
				c0.616,0,1.113,0.501,1.113,1.117S14.784,35.708,14.169,35.708z"/>
		</g>
		<g>
			<path style="fill:#010002;" d="M38.086,35.708h-0.895c-0.616,0-1.117-0.497-1.117-1.113s0.501-1.117,1.117-1.117h0.895
				c0.616,0,1.113,0.501,1.113,1.117S38.702,35.708,38.086,35.708z"/>
		</g>
	</g>
</g>
<g>
</g>
<g>
</g>
<g>
</g>
<g>
</g>
<g>
</g>
<g>
</g>
<g>
</g>
<g>
</g>
<g>
</g>
<g>
</g>
<g>
</g>
<g>
</g>
<g>
</g>
<g>
</g>
<g>
</g>
</svg>
