<?xml version="1.0" encoding="iso-8859-1"?>
<!-- Generator: Adobe Illustrator 18.1.1, SVG Export Plug-In . SVG Version: 6.00 Build 0)  -->
<svg version="1.1" id="Capa_1" xmlns="http://www.w3.org/2000/svg" xmlns:xlink="http://www.w3.org/1999/xlink" x="0px" y="0px"
	 viewBox="0 0 378.308 378.308" style="enable-background:new 0 0 378.308 378.308;" xml:space="preserve">
<g>
	<g>
		<g>
			<path style="fill:#010002;" d="M343.296,255.716V241.71v-84.076V73.557c0-7.693-6.313-14.006-14.023-14.006H49.048
				c-7.709,0-14.039,6.281-14.039,14.006v84.076v84.076v14.006L0,297.754c0,11.58,9.407,21.003,21.003,21.003h336.302
				c11.596,0,21.003-9.423,21.003-21.003L343.296,255.716z M217.201,311.777h-56.045c-1.95,0-3.505-1.555-3.505-3.505
				c0-1.95,1.555-3.505,3.505-3.505h56.045c1.921,0,3.505,1.555,3.505,3.505C220.657,310.222,219.118,311.777,217.201,311.777z
				 M131.395,297.77l10.692-12.834h94.134l10.692,12.834H131.395z M323.563,230.937c0,6.757-5.504,12.231-12.215,12.231H66.958
				c-6.711,0-12.215-5.52-12.215-12.231V84.36c0-6.757,5.504-12.231,12.215-12.231h244.39c6.711,0,12.215,5.504,12.215,12.231
				C323.563,84.36,323.563,230.937,323.563,230.937z"/>
			<path style="fill:#010002;" d="M230.335,122.751c22.859,22.843,22.859,60.074,0,82.933l9.2,9.232
				c27.983-27.967,27.983-73.446,0-101.397L230.335,122.751z"/>
			<path style="fill:#010002;" d="M225.72,127.367l-9.2,9.2c15.244,15.244,15.244,40.056,0,55.299l9.2,9.2
				C246.055,180.745,246.055,147.67,225.72,127.367z"/>
			<path style="fill:#010002;" d="M211.901,141.182l-9.2,9.2c7.599,7.615,7.599,20.051-0.032,27.666l9.232,9.2
				C224.56,174.559,224.56,153.857,211.901,141.182z"/>
			<path style="fill:#010002;" d="M191.358,153.698V94.181l-52.54,52.54h-21.003v35.025h21.003l52.54,52.54v-59.552
				c5.791,0,10.501-4.713,10.501-10.501C201.86,158.411,197.15,153.698,191.358,153.698z"/>
		</g>
	</g>
</g>
<g>
</g>
<g>
</g>
<g>
</g>
<g>
</g>
<g>
</g>
<g>
</g>
<g>
</g>
<g>
</g>
<g>
</g>
<g>
</g>
<g>
</g>
<g>
</g>
<g>
</g>
<g>
</g>
<g>
</g>
</svg>
