<?xml version="1.0" encoding="iso-8859-1"?>
<!-- Generator: Adobe Illustrator 18.1.1, SVG Export Plug-In . SVG Version: 6.00 Build 0)  -->
<svg version="1.1" id="Capa_1" xmlns="http://www.w3.org/2000/svg" xmlns:xlink="http://www.w3.org/1999/xlink" x="0px" y="0px"
	 viewBox="0 0 85.348 85.348" style="enable-background:new 0 0 85.348 85.348;" xml:space="preserve">
<g>
	<g>
		<path style="fill:#010002;" d="M77.45,57.691v-3.16V35.563V16.595c0-1.736-1.424-3.16-3.164-3.16h-63.22
			c-1.739,0-3.167,1.417-3.167,3.16v18.968v18.968v3.16L0,67.175c0,2.613,2.122,4.738,4.738,4.738H80.61
			c2.616,0,4.738-2.126,4.738-4.738L77.45,57.691z M49.002,70.339H36.354c-0.437,0-0.791-0.351-0.791-0.791s0.354-0.791,0.791-0.791
			h12.648c0.433,0,0.791,0.351,0.791,0.791C49.782,69.988,49.435,70.339,49.002,70.339z M29.644,67.179l2.412-2.895h21.237
			l2.412,2.895H29.644z M72.998,52.101c0,1.525-1.242,2.759-2.756,2.759H15.106c-1.514,0-2.756-1.245-2.756-2.759V19.032
			c0-1.525,1.242-2.759,2.756-2.759h55.136c1.514,0,2.756,1.242,2.756,2.759C72.998,19.032,72.998,52.101,72.998,52.101z"/>
		<path style="fill:#010002;" d="M57.365,38.591c-0.036,0-0.068,0.021-0.1,0.021c0.05-0.336,0.1-0.673,0.1-1.02
			c0-3.922-3.185-7.1-7.1-7.1c-0.558,0-1.099,0.079-1.61,0.204c-1.61-2.308-4.277-3.819-7.304-3.819
			c-4.076,0-7.476,2.759-8.539,6.488c-0.655-0.204-1.331-0.34-2.047-0.34c-3.926,0-7.104,3.178-7.104,7.104
			c0,3.922,3.182,7.1,7.104,7.1c2.691,0,24.605,0,26.612,0c2.384,0,4.313-1.936,4.313-4.32
			C61.685,40.527,59.749,38.591,57.365,38.591z"/>
	</g>
</g>
<g>
</g>
<g>
</g>
<g>
</g>
<g>
</g>
<g>
</g>
<g>
</g>
<g>
</g>
<g>
</g>
<g>
</g>
<g>
</g>
<g>
</g>
<g>
</g>
<g>
</g>
<g>
</g>
<g>
</g>
</svg>
