<?xml version="1.0" encoding="iso-8859-1"?>
<!-- Generator: Adobe Illustrator 18.1.1, SVG Export Plug-In . SVG Version: 6.00 Build 0)  -->
<svg version="1.1" id="Capa_1" xmlns="http://www.w3.org/2000/svg" xmlns:xlink="http://www.w3.org/1999/xlink" x="0px" y="0px"
	 viewBox="0 0 85.348 85.348" style="enable-background:new 0 0 85.348 85.348;" xml:space="preserve">
<g>
	<path style="fill:#010002;" d="M77.45,58.106V39.135v-0.079c4.695-2.709,7.899-7.72,7.899-13.535
		c0-8.647-7.018-15.665-15.672-15.665c-5.508,0-10.336,2.86-13.131,7.158h-45.48c-1.739,0-3.167,1.417-3.167,3.16v18.971V58.11v3.16
		L0,70.754c0,2.613,2.122,4.738,4.738,4.738H80.61c2.616,0,4.738-2.126,4.738-4.738L77.45,61.27V58.106z M57.294,17.583l4.445-4.438
		l7.938,7.941l7.941-7.941l4.438,4.438l-7.934,7.934l7.934,7.941l-4.438,4.452l-7.941-7.941l-7.938,7.941l-4.445-4.452l7.945-7.941
		L57.294,17.583z M49.002,73.914H36.358c-0.44,0-0.791-0.358-0.791-0.798c0-0.433,0.351-0.784,0.791-0.784h12.644
		c0.433,0,0.791,0.351,0.791,0.784C49.782,73.563,49.435,73.914,49.002,73.914z M29.644,70.754l2.412-2.895h21.237l2.412,2.895
		H29.644z M72.998,55.676c0,1.525-1.242,2.759-2.756,2.759H15.106c-1.514,0-2.756-1.245-2.756-2.759V22.604
		c0-1.525,1.242-2.759,2.756-2.759h40.004c-0.687,1.764-1.106,3.668-1.106,5.68c0,8.661,7.022,15.675,15.672,15.675
		c1.142,0,2.248-0.136,3.321-0.372L72.998,55.676L72.998,55.676z"/>
</g>
<g>
</g>
<g>
</g>
<g>
</g>
<g>
</g>
<g>
</g>
<g>
</g>
<g>
</g>
<g>
</g>
<g>
</g>
<g>
</g>
<g>
</g>
<g>
</g>
<g>
</g>
<g>
</g>
<g>
</g>
</svg>
