<?xml version="1.0" encoding="iso-8859-1"?>
<!-- Generator: Adobe Illustrator 18.1.1, SVG Export Plug-In . SVG Version: 6.00 Build 0)  -->
<svg version="1.1" id="Capa_1" xmlns="http://www.w3.org/2000/svg" xmlns:xlink="http://www.w3.org/1999/xlink" x="0px" y="0px"
	 viewBox="0 0 85.348 85.348" style="enable-background:new 0 0 85.348 85.348;" xml:space="preserve">
<g>
	<g>
		<path style="fill:#010002;" d="M77.45,57.691v-3.16V35.563V16.595c0-1.736-1.424-3.16-3.164-3.16h-63.22
			c-1.739,0-3.167,1.417-3.167,3.16v18.968v18.968v3.16L0,67.175c0,2.613,2.122,4.738,4.738,4.738H80.61
			c2.616,0,4.738-2.126,4.738-4.738L77.45,57.691z M49.002,70.339H36.358c-0.44,0-0.791-0.351-0.791-0.791s0.351-0.791,0.791-0.791
			h12.644c0.433,0,0.791,0.351,0.791,0.791C49.782,69.988,49.435,70.339,49.002,70.339z M29.644,67.179l2.412-2.895h21.237
			l2.412,2.895H29.644z M72.998,52.101c0,1.525-1.242,2.759-2.756,2.759H15.106c-1.514,0-2.756-1.245-2.756-2.759V19.032
			c0-1.525,1.242-2.759,2.756-2.759h55.136c1.514,0,2.756,1.242,2.756,2.759C72.998,19.032,72.998,52.101,72.998,52.101z"/>
		<path style="fill:#010002;" d="M59.591,33.706c-0.043,0-0.075,0.029-0.118,0.029c0.061-0.383,0.118-0.777,0.118-1.174
			c0-4.517-3.658-8.178-8.178-8.178c-0.644,0-1.26,0.093-1.854,0.229c-1.861-2.652-4.928-4.398-8.41-4.398
			c-4.692,0-8.604,3.167-9.828,7.473c-0.755-0.229-1.532-0.387-2.355-0.387c-4.524,0-8.181,3.658-8.181,8.174
			s3.658,8.178,8.181,8.178c1.313,0,6.646,0,12.505,0c-0.82-1.299-1.27-2.802-1.27-4.388c0-2.208,0.859-4.287,2.426-5.851
			c3.117-3.124,8.575-3.124,11.703,0c2.498,2.491,3.074,6.202,1.646,9.291l0.948,0.948c1.328,0,2.312,0,2.677,0
			c2.745,0,4.971-2.23,4.971-4.975C64.559,35.935,62.333,33.706,59.591,33.706z"/>
		<path style="fill:#010002;" d="M54.524,44.399l-1.056-1.049c2.083-2.545,1.965-6.302-0.404-8.668c-2.53-2.53-6.642-2.53-9.169,0
			c-2.527,2.53-2.527,6.639,0,9.169c2.373,2.373,6.12,2.484,8.668,0.408l1.056,1.052l-0.308,0.301l6.138,6.152l1.532-1.539
			l-6.138-6.134L54.524,44.399z M52.026,43.58c-2.201,1.814-5.465,1.718-7.53-0.336c-2.187-2.194-2.187-5.758,0-7.956
			c2.19-2.19,5.758-2.187,7.949,0c2.061,2.061,2.162,5.325,0.344,7.53L52.026,43.58z"/>
	</g>
</g>
<g>
</g>
<g>
</g>
<g>
</g>
<g>
</g>
<g>
</g>
<g>
</g>
<g>
</g>
<g>
</g>
<g>
</g>
<g>
</g>
<g>
</g>
<g>
</g>
<g>
</g>
<g>
</g>
<g>
</g>
</svg>
