<?xml version="1.0" encoding="iso-8859-1"?>
<!-- Generator: Adobe Illustrator 18.1.1, SVG Export Plug-In . SVG Version: 6.00 Build 0)  -->
<svg version="1.1" id="Capa_1" xmlns="http://www.w3.org/2000/svg" xmlns:xlink="http://www.w3.org/1999/xlink" x="0px" y="0px"
	 viewBox="0 0 85.348 85.348" style="enable-background:new 0 0 85.348 85.348;" xml:space="preserve">
<g>
	<g>
		<path style="fill:#010002;" d="M77.45,57.691v-3.16V35.563V16.595c0-1.736-1.424-3.16-3.164-3.16h-63.22
			c-1.739,0-3.167,1.417-3.167,3.16v18.968v18.968v3.16L0,67.175c0,2.613,2.122,4.738,4.738,4.738H80.61
			c2.616,0,4.738-2.126,4.738-4.738L77.45,57.691z M49.002,70.339H36.358c-0.44,0-0.791-0.351-0.791-0.791s0.351-0.791,0.791-0.791
			h12.644c0.433,0,0.791,0.351,0.791,0.791C49.782,69.988,49.435,70.339,49.002,70.339z M29.644,67.179l2.412-2.895h21.237
			l2.412,2.895H29.644z M72.998,52.101c0,1.525-1.242,2.759-2.756,2.759H15.106c-1.514,0-2.756-1.245-2.756-2.759V19.032
			c0-1.525,1.242-2.759,2.756-2.759h55.136c1.514,0,2.756,1.242,2.756,2.759C72.998,19.032,72.998,52.101,72.998,52.101z"/>
		<path style="fill:#010002;" d="M30.538,52.82h24.261V21.283H30.538V52.82z M53.593,50.995h-7.276l7.276-7.276
			C53.593,43.719,53.593,50.995,53.593,50.995z M42.674,23.101c6.034,0,10.919,4.885,10.919,10.919
			c0,6.027-4.885,10.915-10.919,10.915c-0.805,0-1.578-0.104-2.333-0.265c0.515-1.052,1.056-2.194,1.564-3.264l0.723-1.535
			l-1.532,0.727c-1.6,0.759-3.364,1.603-4.738,2.298c-2.77-1.986-4.595-5.207-4.595-8.872C31.755,27.987,36.64,23.101,42.674,23.101
			z M37.922,48.01c-0.029,0.029-0.072,0.036-0.097,0.064l-3.396-3.403c0.032-0.029,0.039-0.064,0.068-0.082
			c0.354-0.354,6.861-3.432,6.861-3.432S38.272,47.663,37.922,48.01z M31.755,43.723l7.276,7.276h-7.276
			C31.755,50.999,31.755,43.723,31.755,43.723z"/>
		<path style="fill:#010002;" d="M42.674,37.653c2.011,0,3.643-1.628,3.643-3.636c0-2.011-1.628-3.643-3.643-3.643
			s-3.643,1.628-3.643,3.643C39.031,36.025,40.663,37.653,42.674,37.653z M42.674,31.587c1.342,0,2.426,1.092,2.426,2.434
			c0,1.335-1.084,2.426-2.426,2.426c-1.342,0-2.426-1.092-2.426-2.426C40.248,32.678,41.332,31.587,42.674,31.587z"/>
	</g>
</g>
<g>
</g>
<g>
</g>
<g>
</g>
<g>
</g>
<g>
</g>
<g>
</g>
<g>
</g>
<g>
</g>
<g>
</g>
<g>
</g>
<g>
</g>
<g>
</g>
<g>
</g>
<g>
</g>
<g>
</g>
</svg>
