<?xml version="1.0" encoding="iso-8859-1"?>
<!-- Generator: Adobe Illustrator 18.1.1, SVG Export Plug-In . SVG Version: 6.00 Build 0)  -->
<svg version="1.1" id="Capa_1" xmlns="http://www.w3.org/2000/svg" xmlns:xlink="http://www.w3.org/1999/xlink" x="0px" y="0px"
	 viewBox="0 0 85.348 85.348" style="enable-background:new 0 0 85.348 85.348;" xml:space="preserve">
<g>
	<path style="fill:#010002;" d="M77.45,58.106V39.135v-0.082c4.695-2.706,7.899-7.723,7.899-13.532
		c0-8.65-7.018-15.665-15.672-15.665c-5.511,0-10.339,2.86-13.131,7.158h-45.48c-1.739,0-3.167,1.417-3.167,3.16v18.971V58.11v3.16
		L0,70.754c0,2.613,2.122,4.738,4.738,4.738H80.61c2.616,0,4.738-2.126,4.738-4.738L77.45,61.27V58.106z M60.722,21.724l7.186,5.991
		l9.627-13.553l5.118,3.636l-13.55,19.097L56.7,26.555L60.722,21.724z M48.998,73.914h-12.64c-0.437,0-0.795-0.358-0.795-0.798
		c0-0.433,0.358-0.784,0.795-0.784h12.64c0.437,0,0.795,0.351,0.795,0.784C49.785,73.563,49.435,73.914,48.998,73.914z
		 M29.644,70.754l2.412-2.895h21.237l2.412,2.895H29.644z M72.998,55.676c0,1.525-1.242,2.759-2.756,2.759H15.106
		c-1.514,0-2.756-1.245-2.756-2.759V22.604c0-1.525,1.242-2.759,2.756-2.759h40.001c-0.684,1.764-1.102,3.668-1.102,5.68
		c0,8.654,7.015,15.675,15.672,15.675c1.142,0,2.248-0.136,3.321-0.372C72.998,40.828,72.998,55.676,72.998,55.676z"/>
</g>
<g>
</g>
<g>
</g>
<g>
</g>
<g>
</g>
<g>
</g>
<g>
</g>
<g>
</g>
<g>
</g>
<g>
</g>
<g>
</g>
<g>
</g>
<g>
</g>
<g>
</g>
<g>
</g>
<g>
</g>
</svg>
