<?xml version="1.0" encoding="iso-8859-1"?>
<!-- Generator: Adobe Illustrator 18.1.1, SVG Export Plug-In . SVG Version: 6.00 Build 0)  -->
<svg version="1.1" id="Capa_1" xmlns="http://www.w3.org/2000/svg" xmlns:xlink="http://www.w3.org/1999/xlink" x="0px" y="0px"
	 viewBox="0 0 85.348 85.348" style="enable-background:new 0 0 85.348 85.348;" xml:space="preserve">
<g>
	<g>
		<path style="fill:#010002;" d="M77.45,57.691v-3.16V35.563V16.595c0-1.736-1.421-3.16-3.16-3.16H11.066
			c-1.739,0-3.167,1.417-3.167,3.16v18.968v18.968v3.16L0,67.175c0,2.613,2.122,4.738,4.738,4.738H80.61
			c2.613,0,4.738-2.126,4.738-4.738L77.45,57.691z M49.002,70.339H36.358c-0.437,0-0.791-0.351-0.791-0.791s0.354-0.791,0.791-0.791
			h12.644c0.437,0,0.791,0.351,0.791,0.791C49.785,69.988,49.438,70.339,49.002,70.339z M29.644,67.179l2.412-2.895h21.233
			l2.416,2.895H29.644z M73.001,52.101c0,1.525-1.242,2.759-2.759,2.759H45.101v-6.034c0-0.064-0.029-0.125-0.043-0.197h-4.763
			c-0.011,0.072-0.039,0.132-0.039,0.197v6.034H15.106c-1.514,0-2.756-1.245-2.756-2.759V19.032c0-1.525,1.242-2.759,2.756-2.759
			h55.136c1.517,0,2.759,1.242,2.759,2.759L73.001,52.101L73.001,52.101z"/>
		<path style="fill:#010002;" d="M36.805,33.895c1.127,0,2.044,0.208,2.044-0.927v-8.167c0-1.134-0.916-2.051-2.044-2.051
			c-1.131,0-2.051,0.916-2.051,2.051v8.167C34.758,34.103,35.674,33.895,36.805,33.895z"/>
		<path style="fill:#010002;" d="M48.554,33.877c1.131,0,2.047,0.225,2.047-0.905v-8.167c0-1.134-0.916-2.051-2.047-2.051
			c-1.124,0-2.044,0.916-2.044,2.051v8.167C46.504,34.103,47.42,33.877,48.554,33.877z"/>
		<path style="fill:#010002;" d="M52.319,35.012H33.076c-0.787,0-1.245-0.254-1.292-0.623c-0.061,0.204-0.086,0.433-0.086,0.719
			v8.922c0,2.366,1.976,4.295,4.391,4.295H49.27c2.409,0,4.391-1.929,4.391-4.295v-8.922c0-0.251-0.036-0.458-0.075-0.644
			C53.479,34.79,53.049,35.012,52.319,35.012z"/>
	</g>
</g>
<g>
</g>
<g>
</g>
<g>
</g>
<g>
</g>
<g>
</g>
<g>
</g>
<g>
</g>
<g>
</g>
<g>
</g>
<g>
</g>
<g>
</g>
<g>
</g>
<g>
</g>
<g>
</g>
<g>
</g>
</svg>
