<?xml version="1.0" encoding="utf-8"?>
<!-- Generator: Adobe Illustrator 21.0.0, SVG Export Plug-In . SVG Version: 6.00 Build 0)  -->
<svg version="1.1" id="Capa_1" xmlns="http://www.w3.org/2000/svg" xmlns:xlink="http://www.w3.org/1999/xlink" x="0px" y="0px"
	 viewBox="0 0 92.8 92.8" style="enable-background:new 0 0 92.8 92.8;" xml:space="preserve">
<style type="text/css">
	.st0{fill:#010002;}
</style>
<path class="st0" d="M77.4,65.1V52.9H73v9.7c0,1.5-1.2,2.8-2.8,2.8H15.1c-1.5,0-2.8-1.2-2.8-2.8V29.6c0-1.5,1.2-2.8,2.8-2.8h31.5V24
	H11.1c-1.7,0-3.2,1.4-3.2,3.2v19v19v3.2L0,77.7c0,2.6,2.1,4.7,4.7,4.7h75.9c2.6,0,4.7-2.1,4.7-4.7l-7.9-9.5L77.4,65.1L77.4,65.1z
	 M49,80.9H36.4c-0.4,0-0.8-0.4-0.8-0.8s0.4-0.8,0.8-0.8H49c0.4,0,0.8,0.4,0.8,0.8C49.8,80.5,49.4,80.9,49,80.9z M29.6,77.7l2.4-2.9
	h21.2l2.4,2.9C55.7,77.7,29.6,77.7,29.6,77.7z"/>
<path class="st0" d="M75.3,18.2L75.3,18.2c0-3.6,3-6.6,6.6-6.6h3.7c3.6,0,6.6,3,6.6,6.6v0c0,3.6-3,6.6-6.6,6.6h-3.7
	C78.3,24.8,75.3,21.8,75.3,18.2z"/>
<path class="st0" d="M66.4,19.6h-2.6c-2.8,0-5.2-2.3-5.2-5.2v0c0-2.8,2.3-5.2,5.2-5.2h2.6c2.8,0,5.2,2.3,5.2,5.2v0
	C71.6,17.3,69.3,19.6,66.4,19.6z"/>
<path class="st0" d="M69.6,32.5H67c-2.8,0-5.2-2.3-5.2-5.2v0c0-2.8,2.3-5.2,5.2-5.2h2.6c2.8,0,5.2,2.3,5.2,5.2v0
	C74.8,30.1,72.4,32.5,69.6,32.5z"/>
<path class="st0" d="M83.1,40.1h-2.6c-2.8,0-5.2-2.3-5.2-5.2v0c0-2.8,2.3-5.2,5.2-5.2h2.6c2.8,0,5.2,2.3,5.2,5.2v0
	C88.3,37.8,85.9,40.1,83.1,40.1z"/>
<path class="st0" d="M54.3,30.7H52c-1.9,0-3.4-1.5-3.4-3.4v0c0-1.9,1.5-3.4,3.4-3.4h2.3c1.9,0,3.4,1.5,3.4,3.4v0
	C57.8,29.2,56.2,30.7,54.3,30.7z"/>
<path class="st0" d="M60.8,40.5h-2.3c-1.9,0-3.4-1.5-3.4-3.4v0c0-1.9,1.5-3.4,3.4-3.4h2.3c1.9,0,3.4,1.5,3.4,3.4v0
	C64.2,38.9,62.6,40.5,60.8,40.5z"/>
<path class="st0" d="M70.6,46.3h-2.3c-1.9,0-3.4-1.5-3.4-3.4v0c0-1.9,1.5-3.4,3.4-3.4h2.3c1.9,0,3.4,1.5,3.4,3.4v0
	C74,44.8,72.5,46.3,70.6,46.3z"/>
<path class="st0" d="M57.6,50.5h-2.3c-1.9,0-3.4-1.5-3.4-3.4v0c0-1.9,1.5-3.4,3.4-3.4h2.3c1.9,0,3.4,1.5,3.4,3.4v0
	C61,48.9,59.5,50.5,57.6,50.5z"/>
<path class="st0" d="M49.3,41.2h-2.3c-1.9,0-3.4-1.5-3.4-3.4v0c0-1.9,1.5-3.4,3.4-3.4h2.3c1.9,0,3.4,1.5,3.4,3.4v0
	C52.7,39.7,51.1,41.2,49.3,41.2z"/>
</svg>
