<?xml version="1.0" encoding="iso-8859-1"?>
<!-- Generator: Adobe Illustrator 18.1.1, SVG Export Plug-In . SVG Version: 6.00 Build 0)  -->
<svg version="1.1" id="Capa_1" xmlns="http://www.w3.org/2000/svg" xmlns:xlink="http://www.w3.org/1999/xlink" x="0px" y="0px"
	 viewBox="0 0 85.348 85.348" style="enable-background:new 0 0 85.348 85.348;" xml:space="preserve">
<g>
	<g>
		<path style="fill:#010002;" d="M77.45,57.691v-3.16V35.563V16.595c0-1.736-1.421-3.16-3.16-3.16H11.066
			c-1.739,0-3.167,1.417-3.167,3.16v18.968v18.968v3.16L0,67.175c0,2.613,2.122,4.738,4.738,4.738H80.61
			c2.613,0,4.738-2.126,4.738-4.738L77.45,57.691z M49.002,70.339H36.358c-0.437,0-0.791-0.351-0.791-0.791s0.354-0.791,0.791-0.791
			h12.644c0.437,0,0.791,0.351,0.791,0.791C49.785,69.988,49.438,70.339,49.002,70.339z M29.644,67.179l2.412-2.895h21.233
			l2.416,2.895H29.644z M73.001,52.101c0,1.525-1.242,2.759-2.759,2.759H15.106c-1.514,0-2.756-1.245-2.756-2.759V19.032
			c0-1.525,1.242-2.759,2.756-2.759h55.136c1.517,0,2.759,1.242,2.759,2.759C73.001,19.032,73.001,52.101,73.001,52.101z"/>
		<path style="fill:#010002;" d="M39.775,27.113l-6.381-6.381l-7.043,7.04l6.381,6.381L39.775,27.113z M35.198,24.429l1.539,1.539
			l-1.539,1.542l-1.539-1.542L35.198,24.429z M30.059,29.565l1.542-1.539l1.539,1.542l-1.539,1.542L30.059,29.565z"/>
		<path style="fill:#010002;" d="M43.952,27.768c-0.966-0.966-2.552-0.966-3.518,0l-7.04,7.04c-0.97,0.966-0.97,2.552,0,3.514
			l14.079,14.076c0.97,0.97,2.759,1.26,3.976,0.651l2.595-1.292c1.228-0.608,2.727-2.119,3.339-3.343l1.296-2.588
			c0.612-1.224,0.319-3.017-0.651-3.983L43.952,27.768z M51.689,45.67c-0.508,0.705-1.46,0.888-2.183,0.404
			c-0.705-0.469-0.92-1.424-0.48-2.144c0.039-0.05,0.032-0.072-0.007-0.104c-0.24-0.229-0.48-0.469-0.716-0.705
			c-0.161-0.161-0.358-0.243-0.573-0.279c-0.021,0-0.036-0.004-0.057,0c-0.952,0.025-1.9,0.064-2.86,0.072
			c-0.472,0.007-0.898-0.147-1.249-0.497c-0.344-0.344-0.684-0.684-1.031-1.034c-0.025-0.025-0.047-0.029-0.082-0.014
			c-0.39,0.168-0.848,0.05-1.106-0.272c-0.276-0.358-0.279-0.827-0.014-1.181c0.361-0.469,1.063-0.497,1.453-0.064
			c0.265,0.301,0.315,0.644,0.172,1.013c-0.014,0.036-0.011,0.05,0.014,0.075c0.361,0.358,0.727,0.719,1.088,1.084
			c0.186,0.179,0.412,0.265,0.673,0.258c0.87-0.021,1.736-0.047,2.609-0.075c0.014,0.004,0.032,0.004,0.054,0.004
			c-2.298-2.301-4.581-4.585-6.871-6.879c-0.183,0.183-0.365,0.369-0.555,0.551c-0.19-0.712-0.376-1.417-0.565-2.129
			c0.712,0.193,1.414,0.372,2.122,0.565c-0.193,0.19-0.372,0.372-0.551,0.548c1.732,1.732,3.461,3.468,5.193,5.193
			c0-0.014,0.004-0.029,0-0.039c0.029-0.895,0.057-1.786,0.075-2.673c0-0.19-0.075-0.358-0.183-0.512
			c-0.025-0.043-0.057-0.075-0.089-0.107c-0.344-0.351-0.687-0.694-1.041-1.045c-0.007-0.007-0.014-0.014-0.029-0.029
			c-0.147,0.15-0.301,0.301-0.447,0.455c-0.455-0.455-0.902-0.902-1.349-1.349c0.451-0.447,0.895-0.895,1.349-1.349
			c0.447,0.447,0.891,0.895,1.342,1.346c-0.147,0.147-0.301,0.297-0.447,0.451c0.007,0.014,0.021,0.025,0.029,0.036
			c0.336,0.336,0.673,0.673,0.998,0.998c0.329,0.322,0.476,0.712,0.497,1.16c0.007,0.265-0.007,0.533-0.021,0.805
			c-0.014,0.716-0.036,1.424-0.057,2.147c-0.004,0.2,0.075,0.372,0.19,0.523c0.029,0.039,0.072,0.075,0.097,0.104
			c0.798,0.809,1.593,1.6,2.391,2.401c0.036,0.032,0.05,0.036,0.082,0.007c0.565-0.354,1.274-0.308,1.804,0.086
			C52.026,44.009,52.172,44.986,51.689,45.67z"/>
	</g>
</g>
<g>
</g>
<g>
</g>
<g>
</g>
<g>
</g>
<g>
</g>
<g>
</g>
<g>
</g>
<g>
</g>
<g>
</g>
<g>
</g>
<g>
</g>
<g>
</g>
<g>
</g>
<g>
</g>
<g>
</g>
</svg>
