<?xml version="1.0" encoding="utf-8"?>
<!-- Generator: Adobe Illustrator 21.0.0, SVG Export Plug-In . SVG Version: 6.00 Build 0)  -->
<svg version="1.1" id="Capa_1" xmlns="http://www.w3.org/2000/svg" xmlns:xlink="http://www.w3.org/1999/xlink" x="0px" y="0px"
	 viewBox="0 0 85.3 85.3" style="enable-background:new 0 0 85.3 85.3;" xml:space="preserve">
<style type="text/css">
	.st0{fill:#010002;}
</style>
<g>
	<path class="st0" d="M77.5,57.7v-3.2v-19v-19c0-1.7-1.4-3.2-3.2-3.2H11.1c-1.7,0-3.2,1.4-3.2,3.2v19v19v3.2L0,67.2
		c0,2.6,2.1,4.7,4.7,4.7h75.9c2.6,0,4.7-2.1,4.7-4.7L77.5,57.7z M49,70.3H36.4c-0.4,0-0.8-0.4-0.8-0.8s0.4-0.8,0.8-0.8H49
		c0.4,0,0.8,0.4,0.8,0.8C49.8,70,49.4,70.3,49,70.3z M29.6,67.2l2.4-2.9h21.2l2.4,2.9H29.6z M73,52.1c0,1.5-1.2,2.8-2.8,2.8H15.1
		c-1.5,0-2.8-1.2-2.8-2.8V19c0-1.5,1.2-2.8,2.8-2.8h55.1c1.5,0,2.8,1.2,2.8,2.8V52.1z"/>
	<path class="st0" d="M53.8,34.7l-7.3-15.1l-6.9,23.6l-7.6-13l-6.6,7.6h-7.8v0.5c-0.2,0.1-0.3,0.4-0.3,0.6v1.2
		c0,0.3,0.1,0.5,0.3,0.6v0.7h9.4l4.4-5l9.2,15.9l6.7-22.7l3.9,7.9l8.7,3.8l7.9,0.2v-3.6h-6.8L53.8,34.7z"/>
</g>
</svg>
