<?xml version="1.0" encoding="iso-8859-1"?>
<!-- Generator: Adobe Illustrator 18.1.1, SVG Export Plug-In . SVG Version: 6.00 Build 0)  -->
<svg version="1.1" id="Capa_1" xmlns="http://www.w3.org/2000/svg" xmlns:xlink="http://www.w3.org/1999/xlink" x="0px" y="0px"
	 viewBox="0 0 85.348 85.348" style="enable-background:new 0 0 85.348 85.348;" xml:space="preserve">
<g>
	<g>
		<path style="fill:#010002;" d="M77.45,57.691v-3.16V35.563V16.595c0-1.736-1.424-3.16-3.164-3.16h-63.22
			c-1.739,0-3.167,1.417-3.167,3.16v18.968v18.968v3.16L0,67.175c0,2.613,2.122,4.738,4.738,4.738H80.61
			c2.616,0,4.738-2.126,4.738-4.738L77.45,57.691z M49.002,70.339H36.354c-0.437,0-0.791-0.351-0.791-0.791s0.354-0.791,0.791-0.791
			h12.648c0.433,0,0.791,0.351,0.791,0.791C49.782,69.988,49.435,70.339,49.002,70.339z M29.644,67.179l2.412-2.895h21.237
			l2.412,2.895H29.644z M72.998,52.101c0,1.525-1.242,2.759-2.756,2.759H15.106c-1.514,0-2.756-1.245-2.756-2.759V19.032
			c0-1.525,1.242-2.759,2.756-2.759h55.136c1.514,0,2.756,1.242,2.756,2.759C72.998,19.032,72.998,52.101,72.998,52.101z"/>
		<path style="fill:#010002;" d="M47.538,40.448l-1.686-1.686c3.321-4.069,3.139-10.064-0.659-13.854
			c-4.044-4.041-10.618-4.041-14.663,0c-4.044,4.048-4.044,10.622,0,14.666c3.794,3.79,9.785,3.976,13.854,0.659l1.686,1.689
			l-0.494,0.49l9.82,9.817l2.441-2.448l-9.813-9.817L47.538,40.448z M43.555,39.142c-3.525,2.906-8.743,2.756-12.039-0.544
			c-3.504-3.504-3.504-9.201,0-12.709c3.504-3.504,9.205-3.504,12.705,0c3.296,3.3,3.45,8.514,0.544,12.043L43.555,39.142z"/>
	</g>
</g>
<g>
</g>
<g>
</g>
<g>
</g>
<g>
</g>
<g>
</g>
<g>
</g>
<g>
</g>
<g>
</g>
<g>
</g>
<g>
</g>
<g>
</g>
<g>
</g>
<g>
</g>
<g>
</g>
<g>
</g>
</svg>
