<?xml version="1.0" encoding="iso-8859-1"?>
<!-- Generator: Adobe Illustrator 18.1.1, SVG Export Plug-In . SVG Version: 6.00 Build 0)  -->
<svg version="1.1" id="Capa_1" xmlns="http://www.w3.org/2000/svg" xmlns:xlink="http://www.w3.org/1999/xlink" x="0px" y="0px"
	 viewBox="0 0 85.348 85.348" style="enable-background:new 0 0 85.348 85.348;" xml:space="preserve">
<g>
	<g>
		<path style="fill:#010002;" d="M77.45,57.691v-3.16V35.563V16.595c0-1.736-1.421-3.16-3.164-3.16h-63.22
			c-1.739,0-3.167,1.417-3.167,3.16v18.968v18.968v3.16L0,67.175c0,2.613,2.122,4.738,4.738,4.738H80.61
			c2.616,0,4.738-2.126,4.738-4.738L77.45,57.691z M48.998,70.339h-12.64c-0.437,0-0.795-0.351-0.795-0.791s0.358-0.791,0.795-0.791
			h12.64c0.437,0,0.795,0.351,0.795,0.791C49.785,69.988,49.435,70.339,48.998,70.339z M29.644,67.179l2.412-2.895h21.237
			l2.412,2.895H29.644z M72.998,52.101c0,1.525-1.242,2.759-2.756,2.759H15.106c-1.514,0-2.756-1.245-2.756-2.759V19.032
			c0-1.525,1.242-2.759,2.756-2.759h55.136c1.514,0,2.756,1.242,2.756,2.759C72.998,19.032,72.998,52.101,72.998,52.101z"/>
		<path style="fill:#010002;" d="M42.674,23.234c-7.627,0-13.811,6.188-13.811,13.811c0,7.623,6.188,13.811,13.811,13.811
			s13.811-6.188,13.811-13.811C56.485,29.418,50.301,23.234,42.674,23.234z M42.674,42.417c-2.963,0-5.368-2.405-5.368-5.368
			c0-2.96,2.405-5.368,5.368-5.368c2.963,0,5.368,2.409,5.368,5.368C48.042,40.012,45.638,42.417,42.674,42.417z"/>
		<path style="fill:#010002;" d="M42.674,32.908c-2.287,0-4.144,1.857-4.144,4.141c0,2.29,1.865,4.141,4.144,4.141
			s4.144-1.854,4.144-4.141C46.819,34.765,44.961,32.908,42.674,32.908z M42.674,39.12c-1.142,0-2.072-0.931-2.072-2.072
			s0.931-2.072,2.072-2.072s2.072,0.931,2.072,2.072S43.816,39.12,42.674,39.12z"/>
	</g>
</g>
<g>
</g>
<g>
</g>
<g>
</g>
<g>
</g>
<g>
</g>
<g>
</g>
<g>
</g>
<g>
</g>
<g>
</g>
<g>
</g>
<g>
</g>
<g>
</g>
<g>
</g>
<g>
</g>
<g>
</g>
</svg>
