<?xml version="1.0" encoding="iso-8859-1"?>
<!-- Generator: Adobe Illustrator 18.1.1, SVG Export Plug-In . SVG Version: 6.00 Build 0)  -->
<svg version="1.1" id="Capa_1" xmlns="http://www.w3.org/2000/svg" xmlns:xlink="http://www.w3.org/1999/xlink" x="0px" y="0px"
	 viewBox="0 0 85.348 85.348" style="enable-background:new 0 0 85.348 85.348;" xml:space="preserve">
<g>
	<g>
		<path style="fill:#010002;" d="M77.45,57.691v-3.16V35.563V16.595c0-1.736-1.424-3.16-3.164-3.16h-63.22
			c-1.739,0-3.167,1.417-3.167,3.16v18.968v18.968v3.16L0,67.175c0,2.613,2.122,4.738,4.738,4.738H80.61
			c2.616,0,4.738-2.126,4.738-4.738L77.45,57.691z M49.002,70.339H36.358c-0.44,0-0.791-0.351-0.791-0.791s0.351-0.791,0.791-0.791
			h12.644c0.433,0,0.791,0.351,0.791,0.791C49.782,69.988,49.435,70.339,49.002,70.339z M29.644,67.179l2.412-2.895h21.237
			l2.412,2.895H29.644z M72.998,52.101c0,1.525-1.242,2.759-2.756,2.759H15.106c-1.514,0-2.756-1.245-2.756-2.759V19.032
			c0-1.525,1.242-2.759,2.756-2.759h55.136c1.514,0,2.756,1.242,2.756,2.759C72.998,19.032,72.998,52.101,72.998,52.101z"/>
		<path style="fill:#010002;" d="M48.1,24.057c-2.158,0.329-4.313,0.63-6.474,0.945c0,3.446,0,6.807,0,10.193
			c4.663,0,9.255,0,13.979,0c0-4.101,0-8.142,0-12.186c-0.229,0-0.469,0-0.698,0C52.638,23.352,50.369,23.717,48.1,24.057z"/>
		<path style="fill:#010002;" d="M41.608,46.851c4.653,0.673,9.258,1.335,13.922,2.008c0-4.116,0-8.106,0-12.147
			c-4.703,0-9.305,0-13.922,0C41.608,40.115,41.608,43.462,41.608,46.851z"/>
		<path style="fill:#010002;" d="M29.772,35.202c3.493,0,6.904,0,10.364,0c0-3.368,0-6.635,0-9.989
			c-3.504,0.512-6.947,1.013-10.364,1.51C29.772,29.629,29.772,32.41,29.772,35.202z"/>
		<path style="fill:#010002;" d="M29.744,45.126c3.439,0.505,6.864,0.998,10.379,1.51c0-3.353,0-6.635,0-9.928
			c-3.489,0-6.914,0-10.379,0C29.744,39.521,29.744,42.281,29.744,45.126z"/>
	</g>
</g>
<g>
</g>
<g>
</g>
<g>
</g>
<g>
</g>
<g>
</g>
<g>
</g>
<g>
</g>
<g>
</g>
<g>
</g>
<g>
</g>
<g>
</g>
<g>
</g>
<g>
</g>
<g>
</g>
<g>
</g>
</svg>
