<?xml version="1.0" encoding="iso-8859-1"?>
<!-- Generator: Adobe Illustrator 18.1.1, SVG Export Plug-In . SVG Version: 6.00 Build 0)  -->
<svg version="1.1" id="Capa_1" xmlns="http://www.w3.org/2000/svg" xmlns:xlink="http://www.w3.org/1999/xlink" x="0px" y="0px"
	 viewBox="0 0 85.348 85.348" style="enable-background:new 0 0 85.348 85.348;" xml:space="preserve">
<g>
	<g>
		<path style="fill:#010002;" d="M77.45,58.103V39.135v-0.079c4.695-2.706,7.899-7.72,7.899-13.535
			c0-8.647-7.018-15.665-15.672-15.665c-5.508,0-10.336,2.86-13.131,7.158h-45.48c-1.739,0-3.167,1.417-3.167,3.16v18.968V58.11
			v3.16L0,70.754c0,2.613,2.122,4.738,4.738,4.738H80.61c2.616,0,4.738-2.126,4.738-4.738L77.45,61.27V58.103z M72.325,14.451
			l-0.73,15.113h-3.804l-0.769-15.113H72.325z M69.691,31.233c1.768,0,2.935,1.267,2.97,3.035c0,1.732-1.167,3.035-2.97,3.035
			S66.688,36,66.688,34.267C66.688,32.5,67.93,31.233,69.691,31.233z M49.002,73.91H36.358c-0.44,0-0.791-0.358-0.791-0.798
			c0-0.433,0.351-0.784,0.791-0.784h12.644c0.433,0,0.791,0.351,0.791,0.784C49.782,73.56,49.435,73.91,49.002,73.91z M29.644,70.75
			l2.412-2.895h21.237l2.412,2.895H29.644z M72.998,55.673c0,1.521-1.242,2.759-2.756,2.759H15.106
			c-1.514,0-2.756-1.242-2.756-2.759V22.6c0-1.521,1.242-2.759,2.756-2.759h40.004c-0.687,1.764-1.106,3.668-1.106,5.68
			c0,8.661,7.022,15.675,15.672,15.675c1.142,0,2.248-0.136,3.321-0.369L72.998,55.673L72.998,55.673z"/>
	</g>
</g>
<g>
</g>
<g>
</g>
<g>
</g>
<g>
</g>
<g>
</g>
<g>
</g>
<g>
</g>
<g>
</g>
<g>
</g>
<g>
</g>
<g>
</g>
<g>
</g>
<g>
</g>
<g>
</g>
<g>
</g>
</svg>
