<?xml version="1.0" encoding="iso-8859-1"?>
<!-- Generator: Adobe Illustrator 18.1.1, SVG Export Plug-In . SVG Version: 6.00 Build 0)  -->
<svg version="1.1" id="Capa_1" xmlns="http://www.w3.org/2000/svg" xmlns:xlink="http://www.w3.org/1999/xlink" x="0px" y="0px"
	 viewBox="0 0 85.348 85.348" style="enable-background:new 0 0 85.348 85.348;" xml:space="preserve">
<g>
	<g>
		<path style="fill:#010002;" d="M77.45,57.691v-3.16V35.563V16.595c0-1.736-1.424-3.16-3.164-3.16h-63.22
			c-1.739,0-3.167,1.417-3.167,3.16v18.968v18.968v3.16L0,67.175c0,2.613,2.122,4.738,4.738,4.738H80.61
			c2.616,0,4.738-2.126,4.738-4.738L77.45,57.691z M49.002,70.339H36.358c-0.44,0-0.791-0.351-0.791-0.791s0.351-0.791,0.791-0.791
			h12.644c0.433,0,0.791,0.351,0.791,0.791C49.782,69.988,49.435,70.339,49.002,70.339z M29.644,67.179l2.412-2.895h21.237
			l2.412,2.895H29.644z M72.998,52.101c0,1.525-1.242,2.759-2.756,2.759H15.106c-1.514,0-2.756-1.245-2.756-2.759V19.032
			c0-1.525,1.242-2.759,2.756-2.759h55.136c1.514,0,2.756,1.242,2.756,2.759C72.998,19.032,72.998,52.101,72.998,52.101z"/>
		<path style="fill:#010002;" d="M46.482,21.606v-0.651c0-0.587-1.571-1.059-3.518-1.059c-1.947,0-3.518,0.472-3.518,1.059v0.651
			c-2.208,0.365-3.879,1.084-3.879,2.165v25.363c0,1.621,3.726,2.466,7.397,2.466c3.679,0,7.397-0.845,7.397-2.466V23.771
			C50.362,22.69,48.701,21.967,46.482,21.606z M49.66,49.145c0,0.734-2.548,1.761-6.696,1.761s-6.692-1.027-6.692-1.761V24.884
			c1.253,0.895,3.98,1.36,6.692,1.36c2.713,0,5.447-0.465,6.696-1.36V49.145z M42.964,25.535c-4.148,0-6.692-1.027-6.692-1.761
			c0-0.497,1.163-1.117,3.174-1.471v1.471c0,0.583,1.571,1.059,3.518,1.059c1.947,0,3.518-0.476,3.518-1.059v-1.471
			c2.011,0.361,3.178,0.973,3.178,1.471C49.66,24.508,47.112,25.535,42.964,25.535z"/>
		<path style="fill:#010002;" d="M37.123,32.231v16.914c0.644,0.433,2.663,1.056,5.841,1.056c3.174,0,5.2-0.623,5.844-1.056V32.231
			c-0.644-0.433-2.67-1.056-5.844-1.056C39.786,31.175,37.768,31.795,37.123,32.231z"/>
	</g>
</g>
<g>
</g>
<g>
</g>
<g>
</g>
<g>
</g>
<g>
</g>
<g>
</g>
<g>
</g>
<g>
</g>
<g>
</g>
<g>
</g>
<g>
</g>
<g>
</g>
<g>
</g>
<g>
</g>
<g>
</g>
</svg>
