<?xml version="1.0" encoding="iso-8859-1"?>
<!-- Generator: Adobe Illustrator 18.1.1, SVG Export Plug-In . SVG Version: 6.00 Build 0)  -->
<svg version="1.1" id="Capa_1" xmlns="http://www.w3.org/2000/svg" xmlns:xlink="http://www.w3.org/1999/xlink" x="0px" y="0px"
	 viewBox="0 0 113.213 113.213" style="enable-background:new 0 0 113.213 113.213;" xml:space="preserve">
<g>
	<g>
		<g>
			<path style="fill:#010002;" d="M81.541,97.715c-0.551,0-1.084-0.104-1.593-0.265c-6.789,4.481-14.909,7.108-23.638,7.108
				c-8.647,0-16.688-2.588-23.441-6.989c-0.39,0.082-0.791,0.147-1.199,0.147h-4.341c7.952,6.374,18.02,10.214,28.982,10.214
				c10.958,0,21.029-3.837,28.982-10.214H81.541z"/>
			<path style="fill:#010002;" d="M73.542,21.382l0.991,1.188c14.637,6.882,24.823,21.724,24.823,38.945
				c0,2.061-0.197,4.076-0.483,6.059h3.411c0.258-1.993,0.44-3.998,0.44-6.059c0-19.505-12.104-36.204-29.182-43.068L73.542,21.382
				L73.542,21.382z"/>
			<path style="fill:#010002;" d="M13.736,67.574c-0.283-1.986-0.48-3.998-0.48-6.059c0-17.221,10.182-32.063,24.819-38.945
				l0.991-1.188v-2.931C21.988,25.319,9.885,42.018,9.885,61.519c0,2.061,0.183,4.076,0.444,6.059h3.407V67.574z"/>
		</g>
		<g>
			<path style="fill:#010002;" d="M69.963,22.674v-1.245v-7.451V6.526c0-0.676-0.555-1.242-1.238-1.242H43.884
				c-0.684,0-1.245,0.555-1.245,1.242v7.451v7.451v1.245l-3.103,3.726c0,1.027,0.834,1.865,1.861,1.865h29.808
				c1.027,0,1.861-0.83,1.861-1.865L69.963,22.674z M58.786,27.645h-4.964c-0.172,0-0.311-0.136-0.311-0.311
				c0-0.172,0.14-0.311,0.311-0.311h4.964c0.175,0,0.315,0.14,0.315,0.311C59.101,27.509,58.962,27.645,58.786,27.645z
				 M51.188,26.399l0.948-1.131h8.342l0.952,1.131H51.188z M68.22,20.48c0,0.598-0.487,1.084-1.081,1.084H45.476
				c-0.594,0-1.081-0.487-1.081-1.084V7.485c0-0.601,0.487-1.084,1.081-1.084h21.663c0.594,0,1.081,0.483,1.081,1.084
				C68.22,7.485,68.22,20.48,68.22,20.48z"/>
			<path style="fill:#010002;" d="M110.111,88.553v-1.253V79.85v-7.451c0-0.676-0.558-1.245-1.249-1.245h-24.83
				c-0.687,0.007-1.249,0.558-1.249,1.253v7.451v7.444v1.245l-3.099,3.733c0,1.02,0.827,1.861,1.861,1.861l29.808,0.007
				c1.027-0.007,1.861-0.837,1.861-1.865L110.111,88.553z M98.927,93.514l-4.967-0.007c-0.168,0.007-0.308-0.132-0.308-0.308
				s0.14-0.308,0.308-0.308h4.967c0.172,0,0.308,0.14,0.311,0.308C99.238,93.374,99.102,93.514,98.927,93.514z M91.329,92.279
				l0.948-1.138h8.339l0.952,1.131L91.329,92.279z M108.357,86.345c0,0.601-0.487,1.092-1.081,1.092H85.613
				c-0.594,0-1.084-0.49-1.084-1.084V73.35c0-0.594,0.49-1.084,1.084-1.084h21.663c0.594,0,1.081,0.49,1.081,1.084V86.345z"/>
			<path style="fill:#010002;" d="M30.424,88.553v-1.245l0.004-7.451v-7.451c0-0.684-0.555-1.245-1.242-1.253H4.348
				c-0.687,0.007-1.245,0.558-1.245,1.245v7.451v7.458v1.238L0,92.272c-0.004,1.027,0.834,1.865,1.861,1.865h29.808
				c1.031,0,1.865-0.837,1.861-1.865L30.424,88.553z M19.247,93.514H14.28c-0.172-0.007-0.308-0.14-0.311-0.315
				c0-0.168,0.143-0.308,0.315-0.308h4.964c0.172,0.007,0.311,0.14,0.311,0.308C19.555,93.374,19.415,93.514,19.247,93.514z
				 M11.646,92.272l0.945-1.131l8.346,0.007l0.948,1.131L11.646,92.272z M28.677,86.352c-0.004,0.594-0.49,1.084-1.088,1.084H5.927
				c-0.591,0-1.077-0.49-1.077-1.092V73.358c0-0.601,0.487-1.084,1.084-1.084L27.6,72.266c0.591,0,1.077,0.49,1.077,1.092
				C28.677,73.358,28.677,86.352,28.677,86.352z"/>
		</g>
	</g>
</g>
<g>
</g>
<g>
</g>
<g>
</g>
<g>
</g>
<g>
</g>
<g>
</g>
<g>
</g>
<g>
</g>
<g>
</g>
<g>
</g>
<g>
</g>
<g>
</g>
<g>
</g>
<g>
</g>
<g>
</g>
</svg>
