<?xml version="1.0" encoding="utf-8"?>
<!-- Generator: Adobe Illustrator 21.0.0, SVG Export Plug-In . SVG Version: 6.00 Build 0)  -->
<svg version="1.1" id="Capa_1" xmlns="http://www.w3.org/2000/svg" xmlns:xlink="http://www.w3.org/1999/xlink" x="0px" y="0px"
	 viewBox="0 0 111.1 111.1" style="enable-background:new 0 0 111.1 111.1;" xml:space="preserve">
<style type="text/css">
	.st0{fill:#010002;}
</style>
<path class="st0" d="M18.6,69.7l-1-19c-0.1-2.4-2.2-5.8-4.6-5.8H5.6c-2.4,0-4.5,3.4-4.6,5.8l-1,19c-0.1,2.4,1.8,4.4,4.2,4.4h10.2
	C16.8,74.1,18.7,72.1,18.6,69.7z M9.3,47.7c2.4,0,4.4,2,4.4,4.4c0,2.4-2,4.4-4.4,4.4c-2.4,0-4.4-2-4.4-4.4
	C4.9,49.7,6.9,47.7,9.3,47.7z M9.3,71.4c-3.6,0-6.6-2.9-6.6-6.6s2.9-6.6,6.6-6.6c3.6,0,6.6,2.9,6.6,6.6
	C15.9,68.5,12.9,71.4,9.3,71.4z"/>
<path class="st0" d="M110.1,50.7c-0.1-2.4-2.2-5.8-4.6-5.8h-7.3c-2.4,0-4.5,3.4-4.6,5.8l-1,19c-0.1,2.4,1.8,4.4,4.2,4.4h10.2
	c2.4,0,4.3-2,4.2-4.4L110.1,50.7z M101.8,47.7c2.4,0,4.4,2,4.4,4.4c0,2.4-2,4.4-4.4,4.4s-4.4-2-4.4-4.4
	C97.4,49.7,99.4,47.7,101.8,47.7z M101.8,71.4c-3.6,0-6.6-2.9-6.6-6.6s2.9-6.6,6.6-6.6s6.6,2.9,6.6,6.6
	C108.4,68.5,105.4,71.4,101.8,71.4z"/>
<path class="st0" d="M90.3,67.4v-19v-19c0-1.7-1.4-3.2-3.2-3.2H23.9c-1.7,0-3.2,1.4-3.2,3.2v19v19v3.2L12.9,80
	c0,2.6,2.1,4.7,4.7,4.7h75.9c2.6,0,4.7-2.1,4.7-4.7l-7.9-9.5L90.3,67.4L90.3,67.4z M61.9,83.2H49.2c-0.4,0-0.8-0.4-0.8-0.8
	s0.4-0.8,0.8-0.8h12.6c0.4,0,0.8,0.4,0.8,0.8C62.7,82.9,62.3,83.2,61.9,83.2z M42.5,80.1l2.4-2.9h21.2l2.4,2.9H42.5z M85.9,65
	c0,1.5-1.2,2.8-2.8,2.8H28c-1.5,0-2.8-1.2-2.8-2.8V31.9c0-1.5,1.2-2.8,2.8-2.8h55.1c1.5,0,2.8,1.2,2.8,2.8
	C85.9,31.9,85.9,65,85.9,65z"/>
<path class="st0" d="M9.4,54.5L9.4,54.5c-1.2,0-2.2-1-2.2-2.2v0c0-1.2,1-2.2,2.2-2.2h0c1.2,0,2.2,1,2.2,2.2v0
	C11.6,53.5,10.6,54.5,9.4,54.5z"/>
<path class="st0" d="M9.4,69L9.4,69c-2.2,0-4-1.8-4-4v0c0-2.2,1.8-4,4-4h0c2.2,0,4,1.8,4,4v0C13.4,67.2,11.6,69,9.4,69z"/>
<path class="st0" d="M101.8,54.4L101.8,54.4c-1.2,0-2.2-1-2.2-2.2v0c0-1.2,1-2.2,2.2-2.2h0c1.2,0,2.2,1,2.2,2.2v0
	C104,53.4,103,54.4,101.8,54.4z"/>
<path class="st0" d="M101.8,68.9L101.8,68.9c-2.2,0-4-1.8-4-4v0c0-2.2,1.8-4,4-4h0c2.2,0,4,1.8,4,4v0
	C105.8,67.1,104,68.9,101.8,68.9z"/>
</svg>
