<?xml version="1.0" encoding="iso-8859-1"?>
<!-- Generator: Adobe Illustrator 18.1.1, SVG Export Plug-In . SVG Version: 6.00 Build 0)  -->
<svg version="1.1" id="Capa_1" xmlns="http://www.w3.org/2000/svg" xmlns:xlink="http://www.w3.org/1999/xlink" x="0px" y="0px"
	 viewBox="0 0 85.348 85.348" style="enable-background:new 0 0 85.348 85.348;" xml:space="preserve">
<g>
	<g>
		<path style="fill:#010002;" d="M77.45,57.691v-3.16V35.563V16.595c0-1.736-1.421-3.16-3.16-3.16H11.066
			c-1.739,0-3.167,1.417-3.167,3.16v18.968v18.968v3.16L0,67.175c0,2.613,2.122,4.738,4.738,4.738H80.61
			c2.613,0,4.738-2.126,4.738-4.738L77.45,57.691z M49.002,70.339H36.358c-0.437,0-0.791-0.351-0.791-0.791s0.354-0.791,0.791-0.791
			h12.644c0.437,0,0.791,0.351,0.791,0.791C49.785,69.988,49.438,70.339,49.002,70.339z M29.644,67.179l2.412-2.895h21.233
			l2.416,2.895H29.644z M73.001,52.101c0,1.525-1.242,2.759-2.759,2.759H15.106c-1.514,0-2.756-1.245-2.756-2.759V19.032
			c0-1.525,1.242-2.759,2.756-2.759h55.136c1.517,0,2.759,1.242,2.759,2.759C73.001,19.032,73.001,52.101,73.001,52.101z"/>
		<path style="fill:#010002;" d="M42.674,32.908c-2.287,0-4.144,1.857-4.144,4.141c0,2.29,1.857,4.141,4.144,4.141
			s4.144-1.854,4.144-4.141C46.819,34.765,44.965,32.908,42.674,32.908z M42.674,39.12c-1.142,0-2.072-0.931-2.072-2.072
			s0.931-2.072,2.072-2.072s2.076,0.931,2.076,2.072S43.816,39.12,42.674,39.12z"/>
		<path style="fill:#010002;" d="M52.781,36.744v-1.403h-3.769v-4.695h-1.789v-6.589c-1.432-0.505-2.945-0.827-4.549-0.827
			c-7.627,0-13.811,6.188-13.811,13.811s6.184,13.811,13.811,13.811c7.623,0,13.811-6.188,13.811-13.811
			c0-0.104-0.029-0.2-0.032-0.304L52.781,36.744L52.781,36.744z M42.674,42.417c-2.963,0-5.368-2.405-5.368-5.368
			c0-2.96,2.405-5.368,5.368-5.368c2.963,0,5.368,2.409,5.368,5.368C48.042,40.012,45.638,42.417,42.674,42.417z"/>
		<rect x="49.012" y="25.288" style="fill:#010002;" width="3.579" height="3.579"/>
		<rect x="50.802" y="30.46" style="fill:#010002;" width="3.089" height="3.092"/>
		<rect x="54.921" y="29.092" style="fill:#010002;" width="2.741" height="2.741"/>
		<rect x="58.851" y="30.105" style="fill:#010002;" width="2.147" height="2.147"/>
		<rect x="62.358" y="29.11" style="fill:#010002;" width="1.07" height="1.074"/>
		<rect x="54.781" y="33.237" style="fill:#010002;" width="1.718" height="1.714"/>
		<rect x="54.066" y="24.343" style="fill:#010002;" width="3.16" height="3.157"/>
		<rect x="58.589" y="25.75" style="fill:#010002;" width="2.656" height="2.656"/>
		<rect x="62.558" y="25.134" style="fill:#010002;" width="1.736" height="1.739"/>
	</g>
</g>
<g>
</g>
<g>
</g>
<g>
</g>
<g>
</g>
<g>
</g>
<g>
</g>
<g>
</g>
<g>
</g>
<g>
</g>
<g>
</g>
<g>
</g>
<g>
</g>
<g>
</g>
<g>
</g>
<g>
</g>
</svg>
