<?xml version="1.0" encoding="iso-8859-1"?>
<!-- Generator: Adobe Illustrator 18.1.1, SVG Export Plug-In . SVG Version: 6.00 Build 0)  -->
<svg version="1.1" id="Capa_1" xmlns="http://www.w3.org/2000/svg" xmlns:xlink="http://www.w3.org/1999/xlink" x="0px" y="0px"
	 viewBox="0 0 85.348 85.348" style="enable-background:new 0 0 85.348 85.348;" xml:space="preserve">
<g>
	<g>
		<path style="fill:#010002;" d="M77.45,57.691v-3.16V35.563V16.595c0-1.736-1.424-3.16-3.164-3.16h-63.22
			c-1.739,0-3.167,1.417-3.167,3.16v18.968v18.968v3.16L0,67.175c0,2.613,2.122,4.738,4.738,4.738H80.61
			c2.616,0,4.738-2.126,4.738-4.738L77.45,57.691z M49.002,70.339H36.358c-0.44,0-0.791-0.351-0.791-0.791s0.351-0.791,0.791-0.791
			h12.644c0.433,0,0.791,0.351,0.791,0.791C49.782,69.988,49.435,70.339,49.002,70.339z M29.644,67.179l2.412-2.895h21.237
			l2.412,2.895H29.644z M72.998,52.101c0,1.525-1.242,2.759-2.756,2.759H15.106c-1.514,0-2.756-1.245-2.756-2.759V19.032
			c0-1.525,1.242-2.759,2.756-2.759h55.136c1.514,0,2.756,1.242,2.756,2.759C72.998,19.032,72.998,52.101,72.998,52.101z"/>
		<path style="fill:#010002;" d="M31.329,21.652v7.63h1.195v6.743h-1.195v14.376h22.69V27.833l-6.181-6.181
			C47.839,21.652,31.329,21.652,31.329,21.652z M34.035,26.666h-1.51V22.88h1.51V26.666z M36.118,26.666h-1.514V22.88h1.514V26.666z
			 M38.197,26.666h-1.51V22.88h1.51V26.666z M40.28,26.666h-1.514V22.88h1.514V26.666z M42.359,26.666h-1.517V22.88h1.517V26.666z
			 M44.439,26.666h-1.514V22.88h1.514V26.666z M46.518,26.666h-1.51V22.88h1.51V26.666z"/>
	</g>
</g>
<g>
</g>
<g>
</g>
<g>
</g>
<g>
</g>
<g>
</g>
<g>
</g>
<g>
</g>
<g>
</g>
<g>
</g>
<g>
</g>
<g>
</g>
<g>
</g>
<g>
</g>
<g>
</g>
<g>
</g>
</svg>
