<?xml version="1.0" encoding="iso-8859-1"?>
<!-- Generator: Adobe Illustrator 18.1.1, SVG Export Plug-In . SVG Version: 6.00 Build 0)  -->
<svg version="1.1" id="Capa_1" xmlns="http://www.w3.org/2000/svg" xmlns:xlink="http://www.w3.org/1999/xlink" x="0px" y="0px"
	 viewBox="0 0 85.348 85.348" style="enable-background:new 0 0 85.348 85.348;" xml:space="preserve">
<g>
	<g>
		<path style="fill:#010002;" d="M77.45,57.691v-3.16V35.563V16.595c0-1.736-1.421-3.16-3.164-3.16h-63.22
			c-1.739,0-3.167,1.417-3.167,3.16v18.968v18.968v3.16L0,67.175c0,2.613,2.122,4.738,4.738,4.738H80.61
			c2.616,0,4.738-2.126,4.738-4.738L77.45,57.691z M48.998,70.339h-12.64c-0.437,0-0.795-0.351-0.795-0.791s0.358-0.791,0.795-0.791
			h12.64c0.437,0,0.795,0.351,0.795,0.791C49.785,69.988,49.435,70.339,48.998,70.339z M29.644,67.179l2.412-2.895h21.237
			l2.412,2.895H29.644z M72.998,52.101c0,1.525-1.242,2.759-2.756,2.759H15.106c-1.514,0-2.756-1.245-2.756-2.759V19.032
			c0-1.525,1.242-2.759,2.756-2.759h55.136c1.514,0,2.756,1.242,2.756,2.759C72.998,19.032,72.998,52.101,72.998,52.101z"/>
		<path style="fill:#010002;" d="M49.66,49.145c0,0.734-2.548,1.761-6.696,1.761s-6.692-1.027-6.692-1.761V24.884
			c1.249,0.895,3.98,1.36,6.692,1.36c2.713,0,5.443-0.465,6.696-1.36v8.986c0.229-0.025,0.462-0.075,0.701-0.075V23.774
			c0-1.088-1.668-1.807-3.876-2.162v-0.659c0-0.58-1.575-1.056-3.522-1.056c-1.947,0-3.522,0.476-3.522,1.056v0.659
			c-2.205,0.361-3.876,1.081-3.876,2.162v25.367c0,1.614,3.722,2.466,7.397,2.466c3.679,0,7.397-0.852,7.397-2.466V47.96
			c-0.24,0-0.472-0.05-0.701-0.072V49.145L49.66,49.145z M39.443,22.303v1.471c0,0.583,1.575,1.059,3.522,1.059
			c1.947,0,3.522-0.476,3.522-1.059v-1.471c2.008,0.361,3.174,0.973,3.174,1.471c0,0.734-2.548,1.761-6.696,1.761
			s-6.692-1.027-6.692-1.761C36.272,23.28,37.435,22.661,39.443,22.303z"/>
		<path style="fill:#010002;" d="M48.808,33.978v-1.746c-0.644-0.433-2.67-1.056-5.844-1.056s-5.196,0.623-5.841,1.056v16.914
			c0.644,0.433,2.666,1.056,5.841,1.056s5.2-0.623,5.844-1.056v-1.364c-3.16-0.712-5.529-3.529-5.529-6.904
			C43.279,37.506,45.648,34.69,48.808,33.978z"/>
		<polygon style="fill:#010002;" points="53.293,36.311 50.362,39.239 47.438,36.311 45.795,37.947 48.726,40.878 45.795,43.805 
			47.438,45.444 50.362,42.52 53.293,45.444 54.935,43.805 52.004,40.878 54.935,37.947 		"/>
	</g>
</g>
<g>
</g>
<g>
</g>
<g>
</g>
<g>
</g>
<g>
</g>
<g>
</g>
<g>
</g>
<g>
</g>
<g>
</g>
<g>
</g>
<g>
</g>
<g>
</g>
<g>
</g>
<g>
</g>
<g>
</g>
</svg>
