<?xml version="1.0" encoding="iso-8859-1"?>
<!-- Generator: Adobe Illustrator 18.1.1, SVG Export Plug-In . SVG Version: 6.00 Build 0)  -->
<svg version="1.1" id="Capa_1" xmlns="http://www.w3.org/2000/svg" xmlns:xlink="http://www.w3.org/1999/xlink" x="0px" y="0px"
	 viewBox="0 0 111.094 111.094" style="enable-background:new 0 0 111.094 111.094;" xml:space="preserve">
<g>
	<g>
		<circle style="fill:#010002;" cx="9.296" cy="64.87" r="4.388"/>
		<path style="fill:#010002;" d="M18.583,69.676l-1.031-19.018c-0.118-2.409-2.19-5.844-4.599-5.844H5.642
			c-2.416,0-4.484,3.436-4.599,5.844L0.005,69.676c-0.115,2.412,1.754,4.384,4.173,4.384h10.228
			C16.833,74.06,18.701,72.088,18.583,69.676z M9.296,47.738c2.419,0,4.384,1.968,4.384,4.388c0,2.43-1.965,4.395-4.384,4.395
			c-2.426,0-4.391-1.968-4.391-4.395C4.915,49.706,6.869,47.738,9.296,47.738z M9.296,71.444c-3.643,0-6.585-2.942-6.585-6.578
			s2.942-6.578,6.585-6.578c3.636,0,6.578,2.942,6.578,6.578S12.932,71.444,9.296,71.444z"/>
		<circle style="fill:#010002;" cx="9.296" cy="52.126" r="2.187"/>
		<circle style="fill:#010002;" cx="101.805" cy="64.87" r="4.388"/>
		<path style="fill:#010002;" d="M110.055,50.658c-0.115-2.409-2.183-5.844-4.599-5.844h-7.312c-2.412,0-4.481,3.436-4.599,5.844
			l-1.031,19.018c-0.118,2.412,1.75,4.384,4.173,4.384h10.228c2.419,0,4.287-1.972,4.173-4.384L110.055,50.658z M101.805,47.738
			c2.423,0,4.388,1.968,4.388,4.388c0,2.43-1.965,4.395-4.388,4.395s-4.388-1.968-4.388-4.395
			C97.418,49.706,99.383,47.738,101.805,47.738z M101.805,71.444c-3.64,0-6.582-2.942-6.582-6.578s2.942-6.578,6.582-6.578
			c3.64,0,6.582,2.942,6.582,6.578S105.434,71.444,101.805,71.444z"/>
		<circle style="fill:#010002;" cx="101.805" cy="52.126" r="2.187"/>
		<path style="fill:#010002;" d="M90.324,67.404V48.436V29.468c0-1.736-1.424-3.16-3.164-3.16H23.94
			c-1.739,0-3.167,1.417-3.167,3.16v18.968v18.968v3.16l-7.899,9.484c0,2.613,2.122,4.738,4.738,4.738h75.872
			c2.616,0,4.738-2.126,4.738-4.738l-7.899-9.484V67.404L90.324,67.404z M61.876,83.211H49.232c-0.44,0-0.791-0.351-0.791-0.791
			c0-0.44,0.351-0.791,0.791-0.791h12.644c0.433,0,0.791,0.351,0.791,0.791C62.656,82.861,62.309,83.211,61.876,83.211z
			 M42.518,80.051l2.412-2.895h21.237l2.412,2.895H42.518z M85.872,64.974c0,1.525-1.242,2.759-2.756,2.759H27.981
			c-1.514,0-2.756-1.245-2.756-2.759V31.905c0-1.525,1.242-2.759,2.756-2.759h55.136c1.514,0,2.756,1.242,2.756,2.759
			C85.872,31.905,85.872,64.974,85.872,64.974z"/>
	</g>
</g>
<g>
</g>
<g>
</g>
<g>
</g>
<g>
</g>
<g>
</g>
<g>
</g>
<g>
</g>
<g>
</g>
<g>
</g>
<g>
</g>
<g>
</g>
<g>
</g>
<g>
</g>
<g>
</g>
<g>
</g>
</svg>
