<?xml version="1.0" encoding="utf-8"?>
<!-- Generator: Adobe Illustrator 21.0.0, SVG Export Plug-In . SVG Version: 6.00 Build 0)  -->
<svg version="1.1" id="Capa_1" xmlns="http://www.w3.org/2000/svg" xmlns:xlink="http://www.w3.org/1999/xlink" x="0px" y="0px"
	 viewBox="0 0 85.3 85.3" style="enable-background:new 0 0 85.3 85.3;" xml:space="preserve">
<style type="text/css">
	.st0{fill:#010002;}
</style>
<path class="st0" d="M77.4,57.7v-3.2v-19v-19c0-1.7-1.4-3.2-3.2-3.2H11.1c-1.7,0-3.2,1.4-3.2,3.2v19v19v3.2L0,67.2
	c0,2.6,2.1,4.7,4.7,4.7h75.9c2.6,0,4.7-2.1,4.7-4.7L77.4,57.7z M49,70.3H36.4c-0.4,0-0.8-0.4-0.8-0.8s0.4-0.8,0.8-0.8H49
	c0.4,0,0.8,0.4,0.8,0.8C49.8,70,49.4,70.3,49,70.3z M29.6,67.2l2.4-2.9h21.2l2.4,2.9H29.6z M73,52.1c0,1.5-1.2,2.8-2.8,2.8H15.1
	c-1.5,0-2.8-1.2-2.8-2.8V19c0-1.5,1.2-2.8,2.8-2.8h55.1c1.5,0,2.8,1.2,2.8,2.8C73,19,73,52.1,73,52.1z"/>
<path class="st0" d="M42.7,32.9c-2.3,0-4.1,1.9-4.1,4.1c0,2.3,1.9,4.1,4.1,4.1s4.1-1.9,4.1-4.1C46.8,34.8,45,32.9,42.7,32.9z
	 M42.7,39.1c-1.1,0-2.1-0.9-2.1-2.1s0.9-2.1,2.1-2.1s2.1,0.9,2.1,2.1S43.8,39.1,42.7,39.1z"/>
<path class="st0" d="M52.8,36.7v-1.4H49v-4.7h-1.8v-6.6c-1.4-0.5-2.9-0.8-4.5-0.8c-7.6,0-13.8,6.2-13.8,13.8S35,50.9,42.7,50.9
	c7.6,0,13.8-6.2,13.8-13.8c0-0.1,0-0.2,0-0.3L52.8,36.7L52.8,36.7z M42.7,42.4c-3,0-5.4-2.4-5.4-5.4c0-3,2.4-5.4,5.4-5.4
	S48,34.1,48,37C48,40,45.6,42.4,42.7,42.4z"/>
<path class="st0" d="M50.6,28.8L50.6,28.8c-1,0-1.8-0.8-1.8-1.8v-1c0-1,0.8-1.8,1.8-1.8h0c1,0,1.8,0.8,1.8,1.8v1
	C52.3,28,51.5,28.8,50.6,28.8z"/>
<path class="st0" d="M56,27.7L56,27.7c-1,0-1.8-0.8-1.8-1.8v-1c0-1,0.8-1.8,1.8-1.8l0,0c1,0,1.8,0.8,1.8,1.8v1
	C57.7,26.9,56.9,27.7,56,27.7z"/>
<path class="st0" d="M51.9,33.7L51.9,33.7c-0.9,0-1.6-0.7-1.6-1.6v-0.3c0-0.9,0.7-1.6,1.6-1.6l0,0c0.9,0,1.6,0.7,1.6,1.6v0.3
	C53.5,33,52.8,33.7,51.9,33.7z"/>
<path class="st0" d="M56.4,32.2L56.4,32.2c-0.9,0-1.6-0.7-1.6-1.6v-0.3c0-0.9,0.7-1.6,1.6-1.6h0c0.9,0,1.6,0.7,1.6,1.6v0.3
	C58,31.5,57.3,32.2,56.4,32.2z"/>
<path class="st0" d="M60,29.1L60,29.1c-0.9,0-1.6-0.7-1.6-1.6v-0.3c0-0.9,0.7-1.6,1.6-1.6h0c0.9,0,1.6,0.7,1.6,1.6v0.3
	C61.7,28.4,60.9,29.1,60,29.1z"/>
<path class="st0" d="M55.6,35.5L55.6,35.5c-0.4,0-0.8-0.4-0.8-0.8v0c0-0.4,0.4-0.8,0.8-0.8h0c0.4,0,0.8,0.4,0.8,0.8v0
	C56.4,35.1,56,35.5,55.6,35.5z"/>
<path class="st0" d="M59.8,33.3L59.8,33.3c-0.5,0-1-0.4-1-1v-0.5c0-0.5,0.4-1,1-1h0c0.5,0,1,0.4,1,1v0.5
	C60.8,32.8,60.3,33.3,59.8,33.3z"/>
<path class="st0" d="M63.7,27.4L63.7,27.4c-0.4,0-0.8-0.4-0.8-0.8v-0.4c0-0.4,0.4-0.8,0.8-0.8l0,0c0.4,0,0.8,0.4,0.8,0.8v0.4
	C64.5,27,64.1,27.4,63.7,27.4z"/>
<path class="st0" d="M62.4,30.5L62.4,30.5c-0.3,0-0.5-0.2-0.5-0.5v-0.3c0-0.3,0.2-0.5,0.5-0.5l0,0c0.3,0,0.5,0.2,0.5,0.5V30
	C62.9,30.2,62.7,30.5,62.4,30.5z"/>
</svg>
