<?xml version="1.0" encoding="utf-8"?>
<!-- Generator: Adobe Illustrator 21.0.0, SVG Export Plug-In . SVG Version: 6.00 Build 0)  -->
<svg version="1.1" id="Capa_1" xmlns="http://www.w3.org/2000/svg" xmlns:xlink="http://www.w3.org/1999/xlink" x="0px" y="0px"
	 viewBox="0 0 85.3 85.3" style="enable-background:new 0 0 85.3 85.3;" xml:space="preserve">
<style type="text/css">
	.st0{fill:#010002;}
</style>
<path class="st0" d="M77.4,57.7v-3.2v-19v-19c0-1.7-1.4-3.2-3.2-3.2H11.1c-1.7,0-3.2,1.4-3.2,3.2v19v19v3.2L0,67.2
	c0,2.6,2.1,4.7,4.7,4.7h75.9c2.6,0,4.7-2.1,4.7-4.7L77.4,57.7z M49,70.3H36.4c-0.4,0-0.8-0.4-0.8-0.8s0.4-0.8,0.8-0.8H49
	c0.4,0,0.8,0.4,0.8,0.8C49.8,70,49.4,70.3,49,70.3z M29.6,67.2l2.4-2.9h21.2l2.4,2.9H29.6z M73,52.1c0,1.5-1.2,2.8-2.8,2.8H15.1
	c-1.5,0-2.8-1.2-2.8-2.8V19c0-1.5,1.2-2.8,2.8-2.8h55.1c1.5,0,2.8,1.2,2.8,2.8V52.1z"/>
<path class="st0" d="M49.7,49.1c0,0.7-2.5,1.8-6.7,1.8s-6.7-1-6.7-1.8V24.9c1.2,0.9,4,1.4,6.7,1.4c2.7,0,5.4-0.5,6.7-1.4v9
	c0.2,0,0.5-0.1,0.7-0.1v-10c0-1.1-1.7-1.8-3.9-2.2V21c0-0.6-1.6-1.1-3.5-1.1s-3.5,0.5-3.5,1.1v0.7c-2.2,0.4-3.9,1.1-3.9,2.2v25.4
	c0,1.6,3.7,2.5,7.4,2.5c3.7,0,7.4-0.9,7.4-2.5V48c-0.2,0-0.5,0-0.7-0.1L49.7,49.1L49.7,49.1z M39.4,22.3v1.5c0,0.6,1.6,1.1,3.5,1.1
	s3.5-0.5,3.5-1.1v-1.5c2,0.4,3.2,1,3.2,1.5c0,0.7-2.5,1.8-6.7,1.8s-6.7-1-6.7-1.8C36.3,23.3,37.4,22.7,39.4,22.3z"/>
<path class="st0" d="M53.1,37.8l-1.6-1.6l-2.9,2.9l-2.9-2.9l-1.4,1.4c1-1.8,2.7-3.1,4.7-3.6v-1.7c-0.6-0.4-2.7-1.1-5.8-1.1
	s-5.2,0.6-5.8,1.1v16.9c0.6,0.4,2.7,1.1,5.8,1.1s5.2-0.6,5.8-1.1v-1.4c-3.2-0.7-5.5-3.5-5.5-6.9c0-1.1,0.3-2.1,0.7-3l2.9,2.9
	l-2.9,2.9l1.6,1.6l2.9-2.9l2.9,2.9l1.6-1.6l-2.9-2.9L53.1,37.8z"/>
</svg>
