<?xml version="1.0" encoding="iso-8859-1"?>
<!-- Generator: Adobe Illustrator 18.1.1, SVG Export Plug-In . SVG Version: 6.00 Build 0)  -->
<svg version="1.1" id="Capa_1" xmlns="http://www.w3.org/2000/svg" xmlns:xlink="http://www.w3.org/1999/xlink" x="0px" y="0px"
	 viewBox="0 0 85.348 85.348" style="enable-background:new 0 0 85.348 85.348;" xml:space="preserve">
<g>
	<g>
		<path style="fill:#010002;" d="M77.45,57.691v-3.16V35.563V16.595c0-1.736-1.421-3.16-3.16-3.16H11.066
			c-1.739,0-3.167,1.417-3.167,3.16v18.968v18.968v3.16L0,67.175c0,2.613,2.122,4.738,4.738,4.738H80.61
			c2.613,0,4.738-2.126,4.738-4.738L77.45,57.691z M49.002,70.339H36.358c-0.437,0-0.791-0.351-0.791-0.791s0.354-0.791,0.791-0.791
			h12.644c0.437,0,0.791,0.351,0.791,0.791C49.785,69.988,49.438,70.339,49.002,70.339z M29.644,67.179l2.412-2.895h21.233
			l2.416,2.895H29.644z M73.001,52.101c0,1.525-1.242,2.759-2.759,2.759H15.106c-1.514,0-2.756-1.245-2.756-2.759V19.032
			c0-1.525,1.242-2.759,2.756-2.759h55.136c1.517,0,2.759,1.242,2.759,2.759C73.001,19.032,73.001,52.101,73.001,52.101z"/>
		<path style="fill:#010002;" d="M46.06,31.14c0.372,0,0.748,0,1.12,0c0,0.036,0,0.057,0,0.075c0,0.873,0,1.743,0,2.613
			c0,0.079-0.007,0.172-0.021,0.251c-0.064,0.329-0.183,0.63-0.419,0.855c-1.142,1.095-2.294,2.169-3.443,3.264
			c-0.018,0.014-0.032,0.029-0.057,0.054c0-4.352,0-8.689,0-13.034c0.462,0,0.916,0,1.381,0c-0.651-1.127-1.292-2.244-1.943-3.371
			c-0.651,1.127-1.296,2.251-1.95,3.378c0.476,0,0.931,0,1.389,0c0,5.74,0,11.492,0,17.246c-0.036-0.036-0.057-0.057-0.075-0.075
			c-1.117-1.056-2.237-2.115-3.353-3.174c-0.336-0.322-0.505-0.719-0.512-1.177c-0.007-0.905,0-1.814-0.004-2.716
			c0-0.064,0.018-0.086,0.075-0.111c0.648-0.286,1.016-0.777,1.052-1.489c0.057-1.034-0.87-1.879-1.9-1.739
			c-0.777,0.1-1.364,0.698-1.464,1.496c-0.089,0.719,0.344,1.446,1.041,1.732c0.064,0.021,0.082,0.057,0.082,0.118
			c-0.004,0.866-0.004,1.732-0.004,2.598s0.336,1.596,0.945,2.19c1.213,1.174,2.452,2.326,3.679,3.489
			c0.021,0.021,0.043,0.043,0.061,0.068c0.24,0.322,0.379,0.673,0.379,1.077c0,0.594,0,1.188,0,1.782
			c0,0.082-0.021,0.125-0.111,0.147c-1.46,0.344-2.398,1.818-2.097,3.285c0.308,1.51,1.725,2.473,3.25,2.23
			c1.478-0.251,2.52-1.657,2.316-3.139c-0.157-1.174-0.998-2.119-2.147-2.384c-0.075-0.014-0.097-0.05-0.097-0.118
			c0.004-2.008,0-4.001,0.004-6.002c0-0.086,0.004-0.183,0.014-0.261c0.054-0.34,0.172-0.655,0.422-0.891
			c0.916-0.877,1.847-1.739,2.759-2.613c0.347-0.329,0.705-0.644,1.027-0.991c0.526-0.58,0.837-1.267,0.834-2.069
			c0-0.837,0-1.671,0-2.509c0-0.025,0-0.05,0.004-0.082c0.376,0,0.748,0,1.124,0c0-1.127,0-2.251,0-3.368c-1.127,0-2.251,0-3.368,0
			C46.06,28.888,46.06,30.012,46.06,31.14z"/>
	</g>
</g>
<g>
</g>
<g>
</g>
<g>
</g>
<g>
</g>
<g>
</g>
<g>
</g>
<g>
</g>
<g>
</g>
<g>
</g>
<g>
</g>
<g>
</g>
<g>
</g>
<g>
</g>
<g>
</g>
<g>
</g>
</svg>
